<svg xmlns="http://www.w3.org/2000/svg" width="20" height="20" viewBox="0 0 20 20" fill="none">
<path d="M8.59362 0.0513248C4.78191 0.560987 2.28384 3.03752 1.70239 6.87795C1.566 7.77524 1.566 9.36884 1.70239 10.2015C2.01106 12.1038 2.58533 13.3098 3.74822 14.4798C4.86087 15.5997 6.00941 16.217 7.62454 16.5472L8.2347 16.6692L9.0961 18.3346C9.56988 19.2535 9.97186 20 9.9934 20C10.0149 20 10.4097 19.2535 10.8835 18.3418C11.3501 17.4301 11.7665 16.6764 11.8167 16.6692C11.8598 16.6549 12.1972 16.5759 12.5704 16.4898C14.0276 16.1524 15.1475 15.5566 16.1309 14.5803C17.7532 12.9724 18.4782 10.8332 18.3706 7.94753C18.3275 6.73438 18.1624 5.77966 17.8537 4.9685C16.8775 2.36994 14.9967 0.783518 12.1828 0.173357C11.4291 0.0154324 9.39042 -0.0563507 8.59362 0.0513248ZM6.56932 7.08612C7.15795 7.24405 7.54558 7.93317 7.4379 8.62947C7.3733 9.06017 7.15077 9.37602 6.76314 9.57701C6.34679 9.79237 5.69356 9.76365 5.28439 9.51959C4.63116 9.11042 4.56656 7.8901 5.16954 7.34454C5.49257 7.05023 6.06683 6.94255 6.56932 7.08612ZM10.7328 7.20098C11.185 7.46657 11.4363 8.09827 11.3286 8.6869C11.1419 9.69187 9.76369 10.0939 9.00996 9.36166C8.3352 8.70843 8.59362 7.43068 9.45502 7.10766C9.81394 6.97845 10.4241 7.02152 10.7328 7.20098ZM14.5732 7.17944C15.1762 7.48811 15.4202 8.37105 15.09 9.04582C14.889 9.47652 14.5588 9.67033 13.9917 9.7134C12.9724 9.78519 12.3335 9.0171 12.5776 8.00495C12.6781 7.58861 12.994 7.22251 13.3744 7.0933C13.6831 6.9928 14.2932 7.03587 14.5732 7.17944Z" fill="white"/>
</svg>