<svg xmlns="http://www.w3.org/2000/svg" width="16" height="16" viewBox="0 0 16 16" fill="none">
<path d="M6.98876 0.0364199C5.02904 0.259108 3.54354 0.892911 2.32086 2.04632C1.41242 2.90281 0.675383 4.1647 0.321148 5.4837C0.0640421 6.42013 -0.0502272 7.77338 0.0183343 8.89253C0.206879 11.8046 1.56097 14.0086 3.86921 15.1449C5.15474 15.7787 7.1316 16.1099 8.79993 15.9671C11.8395 15.7045 13.9078 14.4826 15.0505 12.2728C15.6504 11.1194 15.9246 10.0003 15.9875 8.45287C16.1017 5.84913 15.3476 3.63939 13.8392 2.14339C12.4623 0.767292 10.6625 0.0763903 8.29714 0.00787067C7.84007 -0.00925827 7.25158 0.00216103 6.98876 0.0364199ZM8.61139 2.90281C8.74851 2.97704 8.90277 3.13692 9.01133 3.30821C9.17131 3.57658 9.18273 3.62226 9.18273 4.19325C9.18273 4.86132 9.13131 5.02119 8.81136 5.31811C8.34857 5.75778 7.49155 5.71781 7.08018 5.23246C6.61739 4.6786 6.68023 3.52519 7.19445 3.03985C7.55439 2.70867 8.14288 2.65157 8.61139 2.90281ZM9.0399 9.42355V12.4784H8.01147H6.98305V9.42355V6.36874H8.01147H9.0399V9.42355Z" fill="#CA181F" fill-opacity="0.7"/>
</svg>