<svg xmlns="http://www.w3.org/2000/svg" width="70" height="26" viewBox="0 0 70 26" fill="none">
<g clip-path="url(#clip0_169_1328)">
<path d="M20.1635 3.28005H3.60668L4.79943 0H21.3562L20.1635 3.28005ZM19.5671 4.92007H3.00286L1.81011 8.20012H18.3669L19.5671 4.92007ZM17.778 9.82523H1.21374L0.0209961 13.1053H16.5629L17.778 9.82523Z" fill="#009FDF"/>
<path d="M59.6136 21.3129H62.5954C63.0193 21.3635 63.449 21.3091 63.8468 21.1544C64.2446 20.9997 64.5983 20.7495 64.8766 20.4258C65.2856 19.8905 65.4916 19.2275 65.458 18.5547C65.486 18.1265 65.4074 17.6981 65.2291 17.3078C65.0509 16.9175 64.7786 16.5775 64.4367 16.3183C63.8832 15.9561 63.225 15.7883 62.5656 15.8412H59.6136V21.3129ZM55.6999 24.6153V4.92014H68.5144L67.3888 8.22255H59.6136V12.5835H62.7818C65.3387 12.5835 66.6657 13.1948 67.5826 13.9775C68.2381 14.5581 68.7537 15.2795 69.0907 16.0877C69.4277 16.8959 69.5773 17.7699 69.5283 18.6442C69.5786 19.5856 69.3929 20.5247 68.988 21.3762C68.5831 22.2276 67.9719 22.9644 67.2099 23.5195C65.9798 24.3693 64.6902 24.6079 62.0662 24.6079L55.6999 24.6153ZM44.3539 24.6153V8.21509H38.6585V4.92014H54.4699L53.3442 8.22255H48.3049V24.6228L44.3539 24.6153ZM28.5724 12.8072H30.8088C31.2662 12.8384 31.7257 12.8033 32.173 12.7028C32.6382 12.5542 33.0391 12.2519 33.31 11.8456C33.5809 11.4393 33.7057 10.953 33.6639 10.4664C33.726 9.98292 33.6084 9.49348 33.3336 9.09089C33.0588 8.68829 32.6458 8.40054 32.173 8.28219C31.6846 8.1688 31.1828 8.12364 30.6821 8.148H28.5724V12.8072ZM28.5724 16.2139V21.38H31.3008C32.0527 21.466 32.8087 21.2576 33.4105 20.7986C33.6878 20.5416 33.905 20.2267 34.0468 19.8762C34.1885 19.5258 34.2512 19.1484 34.2305 18.7709C34.2423 18.1678 34.0593 17.5769 33.7086 17.0861C33.1272 16.3407 32.4115 16.199 31.189 16.199L28.5724 16.2139ZM34.879 14.1341V14.2012C35.5437 14.457 36.1648 14.8141 36.7203 15.2597C37.2819 15.7258 37.7257 16.3176 38.0158 16.9872C38.306 17.6568 38.4342 18.3854 38.3902 19.1138C38.3902 21.8049 36.9589 23.7506 34.6107 24.3321C33.6746 24.5609 32.7106 24.6538 31.7481 24.6079H24.6587V4.92014H30.9653C31.967 4.88352 32.9692 4.97622 33.9472 5.19596C36.2283 5.80724 37.7267 7.38017 37.7267 9.86257C37.7453 10.4544 37.6432 11.0439 37.4266 11.595C37.21 12.1461 36.8835 12.6473 36.4669 13.0681C36.0244 13.5173 35.4974 13.8745 34.9163 14.1192L34.879 14.1341Z" fill="#0A2973"/>
</g>
<defs>
<clipPath id="clip0_169_1328">
<rect width="70" height="25.648" fill="white"/>
</clipPath>
</defs>
</svg>