<svg width="375" height="72" viewBox="0 0 375 72" fill="none" xmlns="http://www.w3.org/2000/svg">
<g filter="url(#filter0_d_263_544)">
<path d="M0 31C0 16.6406 11.6406 5 26 5H349C363.359 5 375 16.6406 375 31V73H0V31Z" fill="white"/>
</g>
<path d="M50.5742 52.6C50.8819 52.3573 51.1849 52.124 51.4833 51.9C51.7817 51.6667 52.0847 51.4287 52.3925 51.186C52.9239 50.766 53.3855 50.3787 53.777 50.024C54.1779 49.66 54.5042 49.3147 54.7558 48.988C55.0167 48.6613 55.2123 48.344 55.3426 48.036C55.4729 47.7187 55.5378 47.392 55.5374 47.056C55.5366 46.44 55.3494 45.992 54.9758 45.712C54.6114 45.432 54.1212 45.292 53.5052 45.292C52.9919 45.292 52.5253 45.362 52.1055 45.502C51.6857 45.6327 51.2985 45.7913 50.9441 45.978L50.9424 44.634C51.5022 44.41 52.02 44.2607 52.4959 44.186C52.9811 44.102 53.4104 44.06 53.7837 44.06C54.2037 44.06 54.6005 44.116 54.9739 44.228C55.3474 44.34 55.6743 44.508 55.9546 44.732C56.2348 44.956 56.4592 45.2407 56.6276 45.586C56.796 45.9313 56.8805 46.342 56.8811 46.818C56.8818 47.35 56.7797 47.854 56.575 48.33C56.3702 48.7967 56.0768 49.2587 55.6947 49.716C55.3219 50.164 54.8697 50.612 54.3383 51.06C53.8068 51.508 53.2101 51.97 52.548 52.446L52.0864 52.768H57.0284L57.0299 54H50.5759L50.5742 52.6ZM65.4166 54.112C64.8752 54.112 64.3805 54.0233 63.9322 53.846C63.484 53.6687 63.0964 53.4167 62.7693 53.09C62.4516 52.7633 62.2038 52.376 62.0259 51.928C61.848 51.48 61.7587 50.9807 61.7581 50.43C61.7574 49.8887 61.8455 49.394 62.0223 48.946C62.199 48.4887 62.4459 48.0967 62.7628 47.77C63.0891 47.4433 63.4761 47.1913 63.9239 47.014C64.3717 46.8367 64.8662 46.748 65.4076 46.748C65.9489 46.748 66.4437 46.8367 66.8919 47.014C67.3401 47.1913 67.7231 47.4433 68.0408 47.77C68.3679 48.0967 68.6204 48.4887 68.7983 48.946C68.9761 49.394 69.0654 49.8887 69.0661 50.43C69.0667 50.9807 68.9787 51.48 68.8019 51.928C68.6251 52.376 68.3736 52.7633 68.0473 53.09C67.7304 53.4167 67.348 53.6687 66.9002 53.846C66.4525 54.0233 65.9579 54.112 65.4166 54.112ZM65.4153 53.048C65.7233 53.048 66.0125 52.9873 66.2831 52.866C66.5629 52.7447 66.8007 52.572 66.9964 52.348C67.2015 52.1147 67.3645 51.8393 67.4854 51.522C67.6063 51.1953 67.6666 50.8313 67.6661 50.43C67.6656 50.0287 67.6045 49.6693 67.4828 49.352C67.361 49.0253 67.1974 48.75 66.9917 48.526C66.7861 48.2927 66.5479 48.1153 66.2771 47.994C66.0063 47.8727 65.7169 47.812 65.4089 47.812C65.1009 47.812 64.8069 47.8727 64.5271 47.994C64.2566 48.1153 64.0188 48.2927 63.8137 48.526C63.618 48.75 63.4597 49.0253 63.3388 49.352C63.2178 49.6693 63.1576 50.0287 63.1581 50.43C63.1586 50.8313 63.2197 51.1953 63.3414 51.522C63.4631 51.8393 63.6221 52.1147 63.8184 52.348C64.024 52.572 64.2622 52.7447 64.5331 52.866C64.8132 52.9873 65.1073 53.048 65.4153 53.048ZM72.2476 47.924H69.7556L69.7543 46.86H76.0543L76.0556 47.924H73.5636L73.571 54H72.255L72.2476 47.924ZM77.1512 52.936C77.3188 52.656 77.4538 52.3667 77.5561 52.068C77.6677 51.76 77.756 51.4193 77.8209 51.046C77.8857 50.6727 77.9272 50.2433 77.9453 49.758C77.9727 49.2727 77.9953 48.708 78.0132 48.064L78.0398 46.86H83.1078L83.1152 52.936H84.1512L84.1549 56.016H82.8949L82.8925 54H77.5305L77.5329 56.016H76.2729L76.2692 52.936H77.1512ZM79.1757 48.484C79.1577 48.9973 79.1349 49.464 79.1075 49.884C79.0893 50.304 79.0524 50.6913 78.9969 51.046C78.9413 51.4007 78.8577 51.732 78.7461 52.04C78.6345 52.348 78.4902 52.6467 78.3132 52.936H81.7992L81.7931 47.924H79.1891L79.1757 48.484ZM86.3039 50.724C86.3795 51.4613 86.6322 52.0307 87.062 52.432C87.4918 52.824 88.0707 53.02 88.7987 53.02C89.2281 53.02 89.648 52.9687 90.0586 52.866C90.4784 52.754 90.8236 52.6187 91.0941 52.46L91.0956 53.748C90.8717 53.8227 90.5638 53.902 90.1719 53.986C89.78 54.07 89.2947 54.112 88.7161 54.112C87.5027 54.112 86.569 53.776 85.9148 53.104C85.27 52.432 84.9469 51.4987 84.9454 50.304C84.9448 49.7627 85.0282 49.2727 85.1956 48.834C85.3724 48.3953 85.61 48.022 85.9083 47.714C86.2159 47.406 86.5749 47.168 86.9854 47C87.3958 46.832 87.8391 46.748 88.3151 46.748C89.3324 46.748 90.1308 47.0467 90.7102 47.644C91.2896 48.2413 91.58 49.1467 91.5815 50.36L91.5819 50.724H86.3039ZM88.3024 47.812C87.7517 47.812 87.2993 47.9893 86.945 48.344C86.6001 48.6893 86.386 49.156 86.3027 49.744H90.1807C90.18 49.128 90.0021 48.652 89.647 48.316C89.2919 47.98 88.8437 47.812 88.3024 47.812ZM93.1708 54.112C93.0028 54.112 92.8488 54.098 92.7088 54.07C92.5781 54.042 92.5127 54.0233 92.5127 54.014L92.5112 52.824C92.5486 52.8427 92.5906 52.8567 92.6373 52.866C92.7306 52.8847 92.824 52.894 92.9173 52.894C93.1507 52.894 93.3419 52.796 93.491 52.6C93.6494 52.404 93.775 52.0913 93.8678 51.662C93.9699 51.2233 94.0393 50.6587 94.0757 49.968C94.1216 49.268 94.1438 48.4187 94.1426 47.42L94.1419 46.86H99.4059L99.4147 54H98.0987L98.0912 47.924H95.3332L95.3335 48.12C95.3348 49.2027 95.2893 50.1267 95.1969 50.892C95.1138 51.648 94.9839 52.264 94.8071 52.74C94.6304 53.216 94.4068 53.566 94.1364 53.79C93.866 54.0047 93.5441 54.112 93.1708 54.112ZM102.614 50.724C102.69 51.4613 102.943 52.0307 103.373 52.432C103.802 52.824 104.381 53.02 105.109 53.02C105.539 53.02 105.959 52.9687 106.369 52.866C106.789 52.754 107.134 52.6187 107.405 52.46L107.406 53.748C107.182 53.8227 106.874 53.902 106.482 53.986C106.091 54.07 105.605 54.112 105.027 54.112C103.813 54.112 102.88 53.776 102.225 53.104C101.581 52.432 101.257 51.4987 101.256 50.304C101.255 49.7627 101.339 49.2727 101.506 48.834C101.683 48.3953 101.921 48.022 102.219 47.714C102.526 47.406 102.885 47.168 103.296 47C103.706 46.832 104.15 46.748 104.626 46.748C105.643 46.748 106.441 47.0467 107.021 47.644C107.6 48.2413 107.891 49.1467 107.892 50.36L107.892 50.724H102.614ZM104.613 47.812C104.062 47.812 103.61 47.9893 103.256 48.344C102.911 48.6893 102.697 49.156 102.613 49.744H106.491C106.491 49.128 106.313 48.652 105.958 48.316C105.602 47.98 105.154 47.812 104.613 47.812ZM109.78 46.86H111.096L111.1 49.758H114.684L114.68 46.86H115.996L116.005 54H114.689L114.685 50.822H111.101L111.105 54H109.789L109.78 46.86ZM118.325 46.86H119.641L119.648 52.46H119.676L122.945 46.86H124.611L124.62 54H123.304L123.297 48.4H123.269L120 54H118.334L118.325 46.86ZM127.854 51.2C127.49 51.032 127.186 50.7753 126.943 50.43C126.7 50.0847 126.578 49.66 126.578 49.156C126.577 48.456 126.795 47.9007 127.233 47.49C127.672 47.07 128.348 46.86 129.263 46.86H132.455L132.463 54H131.147L131.144 51.452H129.156L127.759 54H126.205L127.854 51.2ZM131.143 50.388L131.14 47.924H129.264C128.807 47.924 128.466 48.036 128.242 48.26C128.028 48.484 127.921 48.7873 127.922 49.17C127.922 49.5433 128.034 49.842 128.259 50.066C128.483 50.2807 128.819 50.388 129.267 50.388H131.143Z" fill="#2A313B"/>
<path d="M50.5322 32.656C50.756 32.4693 50.9751 32.278 51.1895 32.082C51.404 31.8767 51.6184 31.6807 51.8328 31.494C52.3083 31.0833 52.7465 30.682 53.1474 30.29C53.5575 29.898 53.9117 29.5153 54.21 29.142C54.5082 28.7687 54.741 28.4 54.9086 28.036C55.0855 27.672 55.1737 27.3127 55.1733 26.958C55.1727 26.4633 55.0089 26.09 54.6819 25.838C54.3643 25.586 53.9068 25.46 53.3095 25.46C52.8615 25.46 52.4275 25.5207 52.0077 25.642C51.5972 25.7633 51.2147 25.9173 50.8602 26.104L50.8584 24.592C51.3808 24.3867 51.8706 24.2467 52.3279 24.172C52.7945 24.0973 53.2284 24.06 53.6297 24.06C54.1244 24.06 54.5771 24.116 54.9879 24.228C55.3987 24.34 55.749 24.5173 56.0386 24.76C56.3282 24.9933 56.5526 25.292 56.7117 25.656C56.8708 26.0107 56.9506 26.4353 56.9512 26.93C56.9517 27.2847 56.9008 27.6207 56.7985 27.938C56.7055 28.2553 56.5473 28.582 56.3237 28.918C56.1001 29.2447 55.8018 29.5947 55.429 29.968C55.0654 30.3413 54.6133 30.766 54.0725 31.242L52.4782 32.628H57.0842L57.0859 34H50.5339L50.5322 32.656ZM61.0859 24.2H62.5559L59.0819 34H57.6119L61.0859 24.2ZM67.1197 31.886H62.6257L62.6239 30.444L66.6483 24.2H68.8323L68.84 30.514H70.072L70.0737 31.886H68.8417L68.8442 34H67.1222L67.1197 31.886ZM67.118 30.514L67.1125 26.048H67.0845L64.22 30.514H67.118Z" fill="#2A313B"/>
<rect x="91" y="25" width="48" height="8" rx="4" fill="#2C92FE"/>
<rect x="79" y="25" width="8" height="8" rx="4" fill="#002882" fill-opacity="0.4"/>
<rect x="143" y="25" width="8" height="8" rx="4" fill="#002882" fill-opacity="0.4"/>
<rect x="155" y="25" width="8" height="8" rx="4" fill="#002882" fill-opacity="0.4"/>
<path d="M24.9652 31.0513C24.7022 31.131 24.4792 31.2735 24.2733 31.4956C24.1533 31.6153 22.6837 33.3529 20.9968 35.3526C18.3207 38.5373 17.9433 39.0044 18.0062 39.0842C18.0519 39.1355 19.4929 40.8446 21.2084 42.8899C22.9296 44.9295 24.4049 46.6557 24.4849 46.7183C24.7765 46.9462 25.1597 47.0146 26.1203 46.9975L27.0124 46.9804L24.0732 43.4938C22.4549 41.5795 21.134 39.9957 21.134 39.9787C21.134 39.9616 24.0275 39.9445 27.567 39.9445H34V39.0044V38.0644H27.5613C23.4156 38.0644 21.134 38.0473 21.1455 38.0075C21.1626 37.9619 22.8781 35.9109 26.1203 32.0711L27.0295 31L26.0689 31.0057C25.5428 31.0057 25.0453 31.0285 24.9652 31.0513Z" fill="#2A313B"/>
<path d="M350.035 46.9487C350.298 46.869 350.521 46.7265 350.727 46.5044C350.847 46.3847 352.316 44.6471 354.003 42.6474C356.679 39.4627 357.057 38.9956 356.994 38.9158C356.948 38.8645 355.507 37.1554 353.792 35.1101C352.07 33.0705 350.595 31.3443 350.515 31.2817C350.223 31.0538 349.84 30.9854 348.88 31.0025L347.988 31.0196L350.927 34.5062C352.545 36.4205 353.866 38.0043 353.866 38.0213C353.866 38.0384 350.973 38.0555 347.433 38.0555H341V38.9956V39.9356H347.439C351.584 39.9356 353.866 39.9527 353.855 39.9925C353.837 40.0381 352.122 42.0891 348.88 45.9289L347.97 47L348.931 46.9943C349.457 46.9943 349.955 46.9715 350.035 46.9487Z" fill="#2A313B"/>
<defs>
<filter id="filter0_d_263_544" x="-4" y="0" width="383" height="76" filterUnits="userSpaceOnUse" color-interpolation-filters="sRGB">
<feFlood flood-opacity="0" result="BackgroundImageFix"/>
<feColorMatrix in="SourceAlpha" type="matrix" values="0 0 0 0 0 0 0 0 0 0 0 0 0 0 0 0 0 0 127 0" result="hardAlpha"/>
<feOffset dy="-1"/>
<feGaussianBlur stdDeviation="2"/>
<feComposite in2="hardAlpha" operator="out"/>
<feColorMatrix type="matrix" values="0 0 0 0 0 0 0 0 0 0 0 0 0 0 0 0 0 0 0.25 0"/>
<feBlend mode="normal" in2="BackgroundImageFix" result="effect1_dropShadow_263_544"/>
<feBlend mode="normal" in="SourceGraphic" in2="effect1_dropShadow_263_544" result="shape"/>
</filter>
</defs>
</svg>
