<svg width="303" height="133" viewBox="0 0 303 133" fill="none" xmlns="http://www.w3.org/2000/svg">
<path d="M18.2024 3.2H21.1004C21.7257 3.2 22.2577 3.26067 22.6964 3.382C23.1444 3.494 23.5084 3.662 23.7884 3.886C24.0684 4.10067 24.2737 4.36667 24.4044 4.684C24.5351 4.992 24.6004 5.33733 24.6004 5.72C24.6004 6.252 24.4557 6.70933 24.1664 7.092C23.8864 7.47467 23.4291 7.75 22.7944 7.918V7.946C23.5411 8.10467 24.0731 8.394 24.3904 8.814C24.7171 9.22467 24.8804 9.72867 24.8804 10.326C24.8804 11.1753 24.6097 11.8333 24.0684 12.3C23.5364 12.7667 22.6404 13 21.3804 13H18.2024V3.2ZM21.3804 11.852C22.0804 11.852 22.5891 11.7073 22.9064 11.418C23.2331 11.1287 23.3964 10.718 23.3964 10.186C23.3964 9.66333 23.2331 9.25733 22.9064 8.968C22.5891 8.67867 22.0804 8.534 21.3804 8.534H19.5744V11.852H21.3804ZM21.1004 7.386C21.8471 7.386 22.3791 7.25067 22.6964 6.98C23.0231 6.7 23.1864 6.32667 23.1864 5.86C23.1864 5.40267 23.0231 5.03867 22.6964 4.768C22.3791 4.488 21.8471 4.348 21.1004 4.348H19.5744V7.386H21.1004ZM32.2913 7.736C32.2913 8.10933 32.198 8.41733 32.0113 8.66C31.834 8.89333 31.568 9.08467 31.2133 9.234V9.262C32.1186 9.56067 32.5713 10.1113 32.5713 10.914C32.5713 11.2127 32.5106 11.488 32.3893 11.74C32.2773 11.992 32.1046 12.2113 31.8713 12.398C31.6473 12.5847 31.358 12.734 31.0033 12.846C30.658 12.9487 30.2473 13 29.7713 13H26.6073V5.86H29.4913C29.9953 5.86 30.4246 5.91133 30.7793 6.014C31.134 6.10733 31.4233 6.238 31.6473 6.406C31.8713 6.574 32.0346 6.77467 32.1373 7.008C32.24 7.232 32.2913 7.47467 32.2913 7.736ZM29.7713 11.936C30.2473 11.936 30.5926 11.8427 30.8073 11.656C31.0313 11.4693 31.1433 11.2127 31.1433 10.886C31.1433 10.5593 31.0313 10.3027 30.8073 10.116C30.5926 9.92 30.2473 9.822 29.7713 9.822H27.9233V11.936H29.7713ZM29.4913 8.758C29.9673 8.758 30.3126 8.66933 30.5273 8.492C30.7513 8.30533 30.8633 8.086 30.8633 7.834C30.8633 7.582 30.7513 7.36733 30.5273 7.19C30.3126 7.01267 29.9673 6.924 29.4913 6.924H27.9233V8.758H29.4913ZM35.1456 9.724C35.2202 10.4613 35.4722 11.0307 35.9016 11.432C36.3309 11.824 36.9096 12.02 37.6376 12.02C38.0669 12.02 38.4869 11.9687 38.8976 11.866C39.3176 11.754 39.6629 11.6187 39.9336 11.46V12.748C39.7096 12.8227 39.4016 12.902 39.0096 12.986C38.6176 13.07 38.1322 13.112 37.5536 13.112C36.3402 13.112 35.4069 12.776 34.7536 12.104C34.1096 11.432 33.7876 10.4987 33.7876 9.304C33.7876 8.76267 33.8716 8.27267 34.0396 7.834C34.2169 7.39533 34.4549 7.022 34.7536 6.714C35.0616 6.406 35.4209 6.168 35.8316 6C36.2422 5.832 36.6856 5.748 37.1616 5.748C38.1789 5.748 38.9769 6.04667 39.5556 6.644C40.1342 7.24133 40.4236 8.14667 40.4236 9.36V9.724H35.1456ZM37.1476 6.812C36.5969 6.812 36.1442 6.98933 35.7896 7.344C35.4442 7.68933 35.2296 8.156 35.1456 8.744H39.0236C39.0236 8.128 38.8462 7.652 38.4916 7.316C38.1369 6.98 37.6889 6.812 37.1476 6.812ZM42.2323 11.936C42.4003 11.656 42.5356 11.3667 42.6383 11.068C42.7503 10.76 42.839 10.4193 42.9043 10.046C42.9696 9.67267 43.0116 9.24333 43.0303 8.758C43.0583 8.27267 43.0816 7.708 43.1003 7.064L43.1283 5.86H48.1963V11.936H49.2323V15.016H47.9723V13H42.6103V15.016H41.3503V11.936H42.2323ZM44.2623 7.484C44.2436 7.99733 44.2203 8.464 44.1923 8.884C44.1736 9.304 44.1363 9.69133 44.0803 10.046C44.0243 10.4007 43.9403 10.732 43.8283 11.04C43.7163 11.348 43.5716 11.6467 43.3943 11.936H46.8803V6.924H44.2763L44.2623 7.484ZM50.6425 5.86H51.9585V11.46H51.9865L55.2625 5.86H56.9285V13H55.6125V7.4H55.5845L52.3085 13H50.6425V5.86ZM60.7958 6.924H58.3038V5.86H64.6038V6.924H62.1118V13H60.7958V6.924ZM66.6592 9.724C66.7339 10.4613 66.9859 11.0307 67.4152 11.432C67.8446 11.824 68.4232 12.02 69.1512 12.02C69.5806 12.02 70.0006 11.9687 70.4112 11.866C70.8312 11.754 71.1766 11.6187 71.4472 11.46V12.748C71.2232 12.8227 70.9152 12.902 70.5232 12.986C70.1312 13.07 69.6459 13.112 69.0672 13.112C67.8539 13.112 66.9206 12.776 66.2672 12.104C65.6232 11.432 65.3012 10.4987 65.3012 9.304C65.3012 8.76267 65.3852 8.27267 65.5532 7.834C65.7306 7.39533 65.9686 7.022 66.2672 6.714C66.5752 6.406 66.9346 6.168 67.3452 6C67.7559 5.832 68.1992 5.748 68.6752 5.748C69.6926 5.748 70.4906 6.04667 71.0692 6.644C71.6479 7.24133 71.9372 8.14667 71.9372 9.36V9.724H66.6592ZM68.6612 6.812C68.1106 6.812 67.6579 6.98933 67.3032 7.344C66.9579 7.68933 66.7432 8.156 66.6592 8.744H70.5372C70.5372 8.128 70.3599 7.652 70.0052 7.316C69.6506 6.98 69.2026 6.812 68.6612 6.812ZM78.8905 13.112C78.1439 13.112 77.5512 12.9253 77.1125 12.552C76.6739 12.1693 76.4545 11.642 76.4545 10.97C76.4545 10.186 76.7532 9.58867 77.3505 9.178C77.9572 8.758 78.8859 8.548 80.1365 8.548H81.4525V8.31C81.4525 7.79667 81.2752 7.42333 80.9205 7.19C80.5659 6.95667 80.0945 6.84 79.5065 6.84C79.1239 6.84 78.7365 6.88667 78.3445 6.98C77.9525 7.064 77.5419 7.22267 77.1125 7.456V6.224C77.4672 6.06533 77.8732 5.94867 78.3305 5.874C78.7879 5.79 79.2359 5.748 79.6745 5.748C80.6545 5.748 81.4152 5.972 81.9565 6.42C82.4979 6.85867 82.7685 7.57267 82.7685 8.562V13H81.4245V11.908H81.3965C81.0979 12.3467 80.7152 12.6593 80.2485 12.846C79.7912 13.0233 79.3385 13.112 78.8905 13.112ZM79.2125 11.992C79.5392 11.992 79.8379 11.9407 80.1085 11.838C80.3885 11.7353 80.6265 11.5953 80.8225 11.418C81.0185 11.2313 81.1725 11.0167 81.2845 10.774C81.3965 10.5313 81.4525 10.2747 81.4525 10.004V9.556H80.1925C79.7539 9.556 79.3852 9.58867 79.0865 9.654C78.7972 9.71933 78.5592 9.81267 78.3725 9.934C78.1859 10.0553 78.0505 10.1953 77.9665 10.354C77.8919 10.5127 77.8545 10.69 77.8545 10.886C77.8545 11.2407 77.9759 11.516 78.2185 11.712C78.4612 11.8987 78.7925 11.992 79.2125 11.992ZM84.7792 11.936C84.9472 11.656 85.0825 11.3667 85.1852 11.068C85.2972 10.76 85.3858 10.4193 85.4512 10.046C85.5165 9.67267 85.5585 9.24333 85.5772 8.758C85.6052 8.27267 85.6285 7.708 85.6472 7.064L85.6752 5.86H90.7432V11.936H91.7792V15.016H90.5192V13H85.1572V15.016H83.8972V11.936H84.7792ZM86.8092 7.484C86.7905 7.99733 86.7672 8.464 86.7392 8.884C86.7205 9.304 86.6832 9.69133 86.6272 10.046C86.5712 10.4007 86.4872 10.732 86.3752 11.04C86.2632 11.348 86.1185 11.6467 85.9412 11.936H89.4272V6.924H86.8232L86.8092 7.484ZM94.5053 16.136H93.1893V5.86H94.4493V6.882H94.4773C94.664 6.63 94.8647 6.42933 95.0793 6.28C95.3033 6.13067 95.5227 6.01867 95.7373 5.944C95.952 5.86 96.1573 5.80867 96.3533 5.79C96.5493 5.762 96.7173 5.748 96.8573 5.748C97.38 5.748 97.8467 5.84133 98.2573 6.028C98.668 6.20533 99.0133 6.45733 99.2933 6.784C99.5733 7.11067 99.788 7.498 99.9373 7.946C100.087 8.38467 100.161 8.86067 100.161 9.374C100.161 9.878 100.087 10.3587 99.9373 10.816C99.7973 11.264 99.5873 11.6607 99.3073 12.006C99.0273 12.342 98.6867 12.6127 98.2853 12.818C97.884 13.014 97.4313 13.112 96.9273 13.112C96.3487 13.112 95.8587 13.0047 95.4573 12.79C95.0653 12.566 94.7667 12.3233 94.5613 12.062H94.5053V16.136ZM96.6193 12.048C97.2727 12.048 97.7907 11.8053 98.1733 11.32C98.5653 10.8253 98.7613 10.1627 98.7613 9.332C98.7613 8.56667 98.57 7.95533 98.1873 7.498C97.814 7.04067 97.3053 6.812 96.6613 6.812C95.9987 6.812 95.4713 7.05 95.0793 7.526C94.6967 8.002 94.5053 8.64133 94.5053 9.444C94.5053 10.2373 94.6967 10.872 95.0793 11.348C95.462 11.8147 95.9753 12.048 96.6193 12.048ZM102.89 9.724C102.964 10.4613 103.216 11.0307 103.646 11.432C104.075 11.824 104.654 12.02 105.382 12.02C105.811 12.02 106.231 11.9687 106.642 11.866C107.062 11.754 107.407 11.6187 107.678 11.46V12.748C107.454 12.8227 107.146 12.902 106.754 12.986C106.362 13.07 105.876 13.112 105.298 13.112C104.084 13.112 103.151 12.776 102.498 12.104C101.854 11.432 101.532 10.4987 101.532 9.304C101.532 8.76267 101.616 8.27267 101.784 7.834C101.961 7.39533 102.199 7.022 102.498 6.714C102.806 6.406 103.165 6.168 103.576 6C103.986 5.832 104.43 5.748 104.906 5.748C105.923 5.748 106.721 6.04667 107.3 6.644C107.878 7.24133 108.168 8.14667 108.168 9.36V9.724H102.89ZM104.892 6.812C104.341 6.812 103.888 6.98933 103.534 7.344C103.188 7.68933 102.974 8.156 102.89 8.744H106.768C106.768 8.128 106.59 7.652 106.236 7.316C105.881 6.98 105.433 6.812 104.892 6.812ZM113.154 13.112C112.604 13.112 112.104 13.0233 111.656 12.846C111.218 12.6687 110.844 12.4213 110.536 12.104C110.228 11.7773 109.99 11.39 109.822 10.942C109.664 10.4847 109.584 9.98067 109.584 9.43C109.584 8.87933 109.668 8.38 109.836 7.932C110.004 7.47467 110.242 7.08733 110.55 6.77C110.868 6.44333 111.246 6.19133 111.684 6.014C112.123 5.83667 112.618 5.748 113.168 5.748C113.448 5.748 113.696 5.762 113.91 5.79C114.134 5.818 114.326 5.85067 114.484 5.888C114.662 5.92533 114.816 5.972 114.946 6.028V7.162C114.806 7.09667 114.652 7.04067 114.484 6.994C114.335 6.94733 114.162 6.90533 113.966 6.868C113.77 6.83067 113.551 6.812 113.308 6.812C112.562 6.812 111.988 7.04067 111.586 7.498C111.185 7.946 110.984 8.59 110.984 9.43C110.984 10.27 111.185 10.9187 111.586 11.376C111.988 11.824 112.557 12.048 113.294 12.048C113.537 12.048 113.756 12.0293 113.952 11.992C114.158 11.9547 114.335 11.9127 114.484 11.866C114.652 11.8193 114.806 11.7587 114.946 11.684V12.832C114.806 12.888 114.648 12.9347 114.47 12.972C114.312 13.0093 114.12 13.042 113.896 13.07C113.672 13.098 113.425 13.112 113.154 13.112ZM125.766 7.736C125.766 8.10933 125.673 8.41733 125.486 8.66C125.309 8.89333 125.043 9.08467 124.688 9.234V9.262C125.593 9.56067 126.046 10.1113 126.046 10.914C126.046 11.2127 125.985 11.488 125.864 11.74C125.752 11.992 125.579 12.2113 125.346 12.398C125.122 12.5847 124.833 12.734 124.478 12.846C124.133 12.9487 123.722 13 123.246 13H120.082V5.86H122.966C123.47 5.86 123.899 5.91133 124.254 6.014C124.609 6.10733 124.898 6.238 125.122 6.406C125.346 6.574 125.509 6.77467 125.612 7.008C125.715 7.232 125.766 7.47467 125.766 7.736ZM123.246 11.936C123.722 11.936 124.067 11.8427 124.282 11.656C124.506 11.4693 124.618 11.2127 124.618 10.886C124.618 10.5593 124.506 10.3027 124.282 10.116C124.067 9.92 123.722 9.822 123.246 9.822H121.398V11.936H123.246ZM122.966 8.758C123.442 8.758 123.787 8.66933 124.002 8.492C124.226 8.30533 124.338 8.086 124.338 7.834C124.338 7.582 124.226 7.36733 124.002 7.19C123.787 7.01267 123.442 6.924 122.966 6.924H121.398V8.758H122.966ZM129.054 16.136H127.738V5.86H128.998V6.882H129.026C129.213 6.63 129.414 6.42933 129.628 6.28C129.852 6.13067 130.072 6.01867 130.286 5.944C130.501 5.86 130.706 5.80867 130.902 5.79C131.098 5.762 131.266 5.748 131.406 5.748C131.929 5.748 132.396 5.84133 132.806 6.028C133.217 6.20533 133.562 6.45733 133.842 6.784C134.122 7.11067 134.337 7.498 134.486 7.946C134.636 8.38467 134.71 8.86067 134.71 9.374C134.71 9.878 134.636 10.3587 134.486 10.816C134.346 11.264 134.136 11.6607 133.856 12.006C133.576 12.342 133.236 12.6127 132.834 12.818C132.433 13.014 131.98 13.112 131.476 13.112C130.898 13.112 130.408 13.0047 130.006 12.79C129.614 12.566 129.316 12.3233 129.11 12.062H129.054V16.136ZM131.168 12.048C131.822 12.048 132.34 11.8053 132.722 11.32C133.114 10.8253 133.31 10.1627 133.31 9.332C133.31 8.56667 133.119 7.95533 132.736 7.498C132.363 7.04067 131.854 6.812 131.21 6.812C130.548 6.812 130.02 7.05 129.628 7.526C129.246 8.002 129.054 8.64133 129.054 9.444C129.054 10.2373 129.246 10.872 129.628 11.348C130.011 11.8147 130.524 12.048 131.168 12.048ZM136.883 16.136C136.79 16.136 136.706 16.1313 136.631 16.122C136.557 16.122 136.496 16.1173 136.449 16.108C136.384 16.0987 136.328 16.0847 136.281 16.066V14.988C136.328 14.9973 136.379 15.0067 136.435 15.016C136.482 15.0253 136.533 15.03 136.589 15.03C136.655 15.03 136.725 15.03 136.799 15.03C137.201 15.03 137.495 14.918 137.681 14.694C137.877 14.47 138.055 14.1387 138.213 13.7L138.339 13.35L135.413 5.86H136.855L139.025 11.712H139.123L141.335 5.86H142.665L139.697 13.28C139.483 13.8027 139.287 14.246 139.109 14.61C138.941 14.974 138.755 15.268 138.549 15.492C138.344 15.716 138.111 15.8793 137.849 15.982C137.588 16.0847 137.266 16.136 136.883 16.136ZM148.319 10.242C148.104 10.2887 147.824 10.3353 147.479 10.382C147.133 10.4193 146.774 10.438 146.401 10.438C145.57 10.438 144.907 10.27 144.413 9.934C143.927 9.598 143.685 9.07067 143.685 8.352V5.86H145.001V7.96C145.001 8.23067 145.024 8.45933 145.071 8.646C145.127 8.82333 145.22 8.968 145.351 9.08C145.481 9.18267 145.654 9.25733 145.869 9.304C146.093 9.35067 146.373 9.374 146.709 9.374C147.278 9.374 147.815 9.332 148.319 9.248V5.86H149.635V13H148.319V10.242ZM151.965 5.86H153.281V8.758H156.865V5.86H158.181V13H156.865V9.822H153.281V13H151.965V5.86ZM161.042 16.136C160.948 16.136 160.864 16.1313 160.79 16.122C160.715 16.122 160.654 16.1173 160.608 16.108C160.542 16.0987 160.486 16.0847 160.44 16.066V14.988C160.486 14.9973 160.538 15.0067 160.594 15.016C160.64 15.0253 160.692 15.03 160.748 15.03C160.813 15.03 160.883 15.03 160.958 15.03C161.359 15.03 161.653 14.918 161.84 14.694C162.036 14.47 162.213 14.1387 162.372 13.7L162.498 13.35L159.572 5.86H161.014L163.184 11.712H163.282L165.494 5.86H166.824L163.856 13.28C163.641 13.8027 163.445 14.246 163.268 14.61C163.1 14.974 162.913 15.268 162.708 15.492C162.502 15.716 162.269 15.8793 162.008 15.982C161.746 16.0847 161.424 16.136 161.042 16.136ZM168.207 5.86H169.523V8.758H171.063C171.128 8.31 171.254 7.89933 171.441 7.526C171.628 7.15267 171.87 6.83533 172.169 6.574C172.468 6.31267 172.813 6.112 173.205 5.972C173.606 5.82267 174.05 5.748 174.535 5.748C175.076 5.748 175.566 5.84133 176.005 6.028C176.444 6.21467 176.817 6.476 177.125 6.812C177.433 7.13867 177.671 7.526 177.839 7.974C178.007 8.422 178.091 8.90733 178.091 9.43C178.091 9.962 178.002 10.452 177.825 10.9C177.657 11.348 177.419 11.74 177.111 12.076C176.803 12.4027 176.43 12.6593 175.991 12.846C175.552 13.0233 175.067 13.112 174.535 13.112C174.031 13.112 173.569 13.0373 173.149 12.888C172.738 12.7293 172.384 12.5053 172.085 12.216C171.786 11.9267 171.544 11.5813 171.357 11.18C171.18 10.7787 171.072 10.326 171.035 9.822H169.523V13H168.207V5.86ZM174.535 12.048C174.871 12.048 175.174 11.978 175.445 11.838C175.716 11.698 175.94 11.5067 176.117 11.264C176.304 11.0213 176.444 10.746 176.537 10.438C176.64 10.1207 176.691 9.78467 176.691 9.43C176.691 9.05667 176.64 8.71133 176.537 8.394C176.434 8.07667 176.285 7.80133 176.089 7.568C175.902 7.33467 175.674 7.15267 175.403 7.022C175.142 6.882 174.852 6.812 174.535 6.812C174.199 6.812 173.896 6.882 173.625 7.022C173.364 7.15267 173.14 7.33933 172.953 7.582C172.766 7.81533 172.622 8.09067 172.519 8.408C172.426 8.72533 172.379 9.066 172.379 9.43C172.379 9.794 172.426 10.1347 172.519 10.452C172.622 10.7693 172.762 11.0493 172.939 11.292C173.126 11.5253 173.354 11.712 173.625 11.852C173.896 11.9827 174.199 12.048 174.535 12.048ZM183.164 5.86H184.48V11.46H184.508L187.784 5.86H189.45V13H188.134V7.4H188.106L184.83 13H183.164V5.86ZM191.469 13.112C191.301 13.112 191.147 13.098 191.007 13.07C190.877 13.042 190.811 13.0233 190.811 13.014V11.824C190.849 11.8427 190.891 11.8567 190.937 11.866C191.031 11.8847 191.124 11.894 191.217 11.894C191.451 11.894 191.642 11.796 191.791 11.6C191.95 11.404 192.076 11.0913 192.169 10.662C192.272 10.2233 192.342 9.65867 192.379 8.968C192.426 8.268 192.449 7.41867 192.449 6.42V5.86H197.713V13H196.397V6.924H193.639V7.12C193.639 8.20267 193.593 9.12667 193.499 9.892C193.415 10.648 193.285 11.264 193.107 11.74C192.93 12.216 192.706 12.566 192.435 12.79C192.165 13.0047 191.843 13.112 191.469 13.112ZM200.035 5.86H201.351V11.46H201.379L204.655 5.86H206.321V13H205.005V7.4H204.977L201.701 13H200.035V5.86ZM213.191 16.136H211.875V5.86H213.135V6.882H213.163C213.35 6.63 213.55 6.42933 213.765 6.28C213.989 6.13067 214.208 6.01867 214.423 5.944C214.638 5.86 214.843 5.80867 215.039 5.79C215.235 5.762 215.403 5.748 215.543 5.748C216.066 5.748 216.532 5.84133 216.943 6.028C217.354 6.20533 217.699 6.45733 217.979 6.784C218.259 7.11067 218.474 7.498 218.623 7.946C218.772 8.38467 218.847 8.86067 218.847 9.374C218.847 9.878 218.772 10.3587 218.623 10.816C218.483 11.264 218.273 11.6607 217.993 12.006C217.713 12.342 217.372 12.6127 216.971 12.818C216.57 13.014 216.117 13.112 215.613 13.112C215.034 13.112 214.544 13.0047 214.143 12.79C213.751 12.566 213.452 12.3233 213.247 12.062H213.191V16.136ZM215.305 12.048C215.958 12.048 216.476 11.8053 216.859 11.32C217.251 10.8253 217.447 10.1627 217.447 9.332C217.447 8.56667 217.256 7.95533 216.873 7.498C216.5 7.04067 215.991 6.812 215.347 6.812C214.684 6.812 214.157 7.05 213.765 7.526C213.382 8.002 213.191 8.64133 213.191 9.444C213.191 10.2373 213.382 10.872 213.765 11.348C214.148 11.8147 214.661 12.048 215.305 12.048ZM222.459 13.112C221.712 13.112 221.12 12.9253 220.681 12.552C220.242 12.1693 220.023 11.642 220.023 10.97C220.023 10.186 220.322 9.58867 220.919 9.178C221.526 8.758 222.454 8.548 223.705 8.548H225.021V8.31C225.021 7.79667 224.844 7.42333 224.489 7.19C224.134 6.95667 223.663 6.84 223.075 6.84C222.692 6.84 222.305 6.88667 221.913 6.98C221.521 7.064 221.11 7.22267 220.681 7.456V6.224C221.036 6.06533 221.442 5.94867 221.899 5.874C222.356 5.79 222.804 5.748 223.243 5.748C224.223 5.748 224.984 5.972 225.525 6.42C226.066 6.85867 226.337 7.57267 226.337 8.562V13H224.993V11.908H224.965C224.666 12.3467 224.284 12.6593 223.817 12.846C223.36 13.0233 222.907 13.112 222.459 13.112ZM222.781 11.992C223.108 11.992 223.406 11.9407 223.677 11.838C223.957 11.7353 224.195 11.5953 224.391 11.418C224.587 11.2313 224.741 11.0167 224.853 10.774C224.965 10.5313 225.021 10.2747 225.021 10.004V9.556H223.761C223.322 9.556 222.954 9.58867 222.655 9.654C222.366 9.71933 222.128 9.81267 221.941 9.934C221.754 10.0553 221.619 10.1953 221.535 10.354C221.46 10.5127 221.423 10.69 221.423 10.886C221.423 11.2407 221.544 11.516 221.787 11.712C222.03 11.8987 222.361 11.992 222.781 11.992ZM230.182 13.112C229.818 13.112 229.491 13.0933 229.202 13.056C228.922 13.0187 228.684 12.9813 228.488 12.944C228.292 12.8973 228.142 12.8553 228.04 12.818C227.937 12.7807 227.886 12.762 227.886 12.762V11.628C228.054 11.712 228.25 11.782 228.474 11.838C228.66 11.894 228.884 11.9453 229.146 11.992C229.416 12.0293 229.715 12.048 230.042 12.048C230.714 12.048 231.218 11.9453 231.554 11.74C231.89 11.5347 232.058 11.25 232.058 10.886C232.058 10.5593 231.918 10.298 231.638 10.102C231.367 9.906 230.947 9.808 230.378 9.808H229.23V8.772H230.168C230.737 8.772 231.148 8.68333 231.4 8.506C231.652 8.31933 231.778 8.08133 231.778 7.792C231.778 7.49333 231.642 7.25533 231.372 7.078C231.11 6.90067 230.704 6.812 230.154 6.812C229.883 6.812 229.626 6.83067 229.384 6.868C229.141 6.90533 228.926 6.94733 228.74 6.994C228.525 7.05 228.329 7.11067 228.152 7.176V6.028C228.329 5.972 228.525 5.92533 228.74 5.888C228.926 5.85067 229.146 5.818 229.398 5.79C229.65 5.762 229.93 5.748 230.238 5.748C231.255 5.748 231.997 5.92533 232.464 6.28C232.94 6.62533 233.178 7.078 233.178 7.638C233.178 8.02067 233.07 8.34733 232.856 8.618C232.65 8.88867 232.338 9.094 231.918 9.234V9.248C232.422 9.36 232.804 9.57933 233.066 9.906C233.327 10.2233 233.458 10.5967 233.458 11.026C233.458 11.3153 233.397 11.586 233.276 11.838C233.154 12.09 232.958 12.314 232.688 12.51C232.426 12.6967 232.086 12.846 231.666 12.958C231.255 13.0607 230.76 13.112 230.182 13.112ZM236.474 16.136H235.158V5.86H236.418V6.882H236.446C236.633 6.63 236.833 6.42933 237.048 6.28C237.272 6.13067 237.491 6.01867 237.706 5.944C237.921 5.86 238.126 5.80867 238.322 5.79C238.518 5.762 238.686 5.748 238.826 5.748C239.349 5.748 239.815 5.84133 240.226 6.028C240.637 6.20533 240.982 6.45733 241.262 6.784C241.542 7.11067 241.757 7.498 241.906 7.946C242.055 8.38467 242.13 8.86067 242.13 9.374C242.13 9.878 242.055 10.3587 241.906 10.816C241.766 11.264 241.556 11.6607 241.276 12.006C240.996 12.342 240.655 12.6127 240.254 12.818C239.853 13.014 239.4 13.112 238.896 13.112C238.317 13.112 237.827 13.0047 237.426 12.79C237.034 12.566 236.735 12.3233 236.53 12.062H236.474V16.136ZM238.588 12.048C239.241 12.048 239.759 11.8053 240.142 11.32C240.534 10.8253 240.73 10.1627 240.73 9.332C240.73 8.56667 240.539 7.95533 240.156 7.498C239.783 7.04067 239.274 6.812 238.63 6.812C237.967 6.812 237.44 7.05 237.048 7.526C236.665 8.002 236.474 8.64133 236.474 9.444C236.474 10.2373 236.665 10.872 237.048 11.348C237.431 11.8147 237.944 12.048 238.588 12.048ZM244.858 9.724C244.933 10.4613 245.185 11.0307 245.614 11.432C246.044 11.824 246.622 12.02 247.35 12.02C247.78 12.02 248.2 11.9687 248.61 11.866C249.03 11.754 249.376 11.6187 249.646 11.46V12.748C249.422 12.8227 249.114 12.902 248.722 12.986C248.33 13.07 247.845 13.112 247.266 13.112C246.053 13.112 245.12 12.776 244.466 12.104C243.822 11.432 243.5 10.4987 243.5 9.304C243.5 8.76267 243.584 8.27267 243.752 7.834C243.93 7.39533 244.168 7.022 244.466 6.714C244.774 6.406 245.134 6.168 245.544 6C245.955 5.832 246.398 5.748 246.874 5.748C247.892 5.748 248.69 6.04667 249.268 6.644C249.847 7.24133 250.136 8.14667 250.136 9.36V9.724H244.858ZM246.86 6.812C246.31 6.812 245.857 6.98933 245.502 7.344C245.157 7.68933 244.942 8.156 244.858 8.744H248.736C248.736 8.128 248.559 7.652 248.204 7.316C247.85 6.98 247.402 6.812 246.86 6.812ZM252.029 5.86H253.345V11.936H256.229V5.86H257.545V11.936H260.429V5.86H261.745V13H252.029V5.86ZM264.074 5.86H265.39V11.46H265.418L268.694 5.86H270.36V13H269.044V7.4H269.016L265.74 13H264.074V5.86ZM274.227 6.924H271.735V5.86H278.035V6.924H275.543V13H274.227V6.924ZM280.091 9.724C280.166 10.4613 280.418 11.0307 280.847 11.432C281.276 11.824 281.855 12.02 282.583 12.02C283.012 12.02 283.432 11.9687 283.843 11.866C284.263 11.754 284.608 11.6187 284.879 11.46V12.748C284.655 12.8227 284.347 12.902 283.955 12.986C283.563 13.07 283.078 13.112 282.499 13.112C281.286 13.112 280.352 12.776 279.699 12.104C279.055 11.432 278.733 10.4987 278.733 9.304C278.733 8.76267 278.817 8.27267 278.985 7.834C279.162 7.39533 279.4 7.022 279.699 6.714C280.007 6.406 280.366 6.168 280.777 6C281.188 5.832 281.631 5.748 282.107 5.748C283.124 5.748 283.922 6.04667 284.501 6.644C285.08 7.24133 285.369 8.14667 285.369 9.36V9.724H280.091ZM282.093 6.812C281.542 6.812 281.09 6.98933 280.735 7.344C280.39 7.68933 280.175 8.156 280.091 8.744H283.969C283.969 8.128 283.792 7.652 283.437 7.316C283.082 6.98 282.634 6.812 282.093 6.812ZM49.0353 29.112C48.494 29.112 47.9993 29.0233 47.5513 28.846C47.1033 28.6687 46.716 28.4167 46.3893 28.09C46.072 27.7633 45.8246 27.376 45.6473 26.928C45.47 26.48 45.3813 25.9807 45.3813 25.43C45.3813 24.8887 45.47 24.394 45.6473 23.946C45.8246 23.4887 46.072 23.0967 46.3893 22.77C46.716 22.4433 47.1033 22.1913 47.5513 22.014C47.9993 21.8367 48.494 21.748 49.0353 21.748C49.5766 21.748 50.0713 21.8367 50.5193 22.014C50.9673 22.1913 51.35 22.4433 51.6673 22.77C51.994 23.0967 52.246 23.4887 52.4233 23.946C52.6006 24.394 52.6893 24.8887 52.6893 25.43C52.6893 25.9807 52.6006 26.48 52.4233 26.928C52.246 27.376 51.994 27.7633 51.6673 28.09C51.35 28.4167 50.9673 28.6687 50.5193 28.846C50.0713 29.0233 49.5766 29.112 49.0353 29.112ZM49.0353 28.048C49.3433 28.048 49.6326 27.9873 49.9033 27.866C50.1833 27.7447 50.4213 27.572 50.6173 27.348C50.8226 27.1147 50.986 26.8393 51.1073 26.522C51.2286 26.1953 51.2893 25.8313 51.2893 25.43C51.2893 25.0287 51.2286 24.6693 51.1073 24.352C50.986 24.0253 50.8226 23.75 50.6173 23.526C50.412 23.2927 50.174 23.1153 49.9033 22.994C49.6326 22.8727 49.3433 22.812 49.0353 22.812C48.7273 22.812 48.4333 22.8727 48.1533 22.994C47.8826 23.1153 47.6446 23.2927 47.4393 23.526C47.2433 23.75 47.0846 24.0253 46.9633 24.352C46.842 24.6693 46.7813 25.0287 46.7813 25.43C46.7813 25.8313 46.842 26.1953 46.9633 26.522C47.0846 26.8393 47.2433 27.1147 47.4393 27.348C47.6446 27.572 47.8826 27.7447 48.1533 27.866C48.4333 27.9873 48.7273 28.048 49.0353 28.048ZM54.539 21.86H60.615V29H59.299V22.924H55.855V29H54.539V21.86ZM64.2495 32.136H62.9335V21.86H64.1935V22.882H64.2215C64.4082 22.63 64.6088 22.4293 64.8235 22.28C65.0475 22.1307 65.2668 22.0187 65.4815 21.944C65.6962 21.86 65.9015 21.8087 66.0975 21.79C66.2935 21.762 66.4615 21.748 66.6015 21.748C67.1242 21.748 67.5908 21.8413 68.0015 22.028C68.4122 22.2053 68.7575 22.4573 69.0375 22.784C69.3175 23.1107 69.5322 23.498 69.6815 23.946C69.8308 24.3847 69.9055 24.8607 69.9055 25.374C69.9055 25.878 69.8308 26.3587 69.6815 26.816C69.5415 27.264 69.3315 27.6607 69.0515 28.006C68.7715 28.342 68.4308 28.6127 68.0295 28.818C67.6282 29.014 67.1755 29.112 66.6715 29.112C66.0928 29.112 65.6028 29.0047 65.2015 28.79C64.8095 28.566 64.5108 28.3233 64.3055 28.062H64.2495V32.136ZM66.3635 28.048C67.0168 28.048 67.5348 27.8053 67.9175 27.32C68.3095 26.8253 68.5055 26.1627 68.5055 25.332C68.5055 24.5667 68.3142 23.9553 67.9315 23.498C67.5582 23.0407 67.0495 22.812 66.4055 22.812C65.7428 22.812 65.2155 23.05 64.8235 23.526C64.4408 24.002 64.2495 24.6413 64.2495 25.444C64.2495 26.2373 64.4408 26.872 64.8235 27.348C65.2062 27.8147 65.7195 28.048 66.3635 28.048ZM72.6338 25.724C72.7085 26.4613 72.9605 27.0307 73.3898 27.432C73.8192 27.824 74.3978 28.02 75.1258 28.02C75.5552 28.02 75.9752 27.9687 76.3858 27.866C76.8058 27.754 77.1512 27.6187 77.4218 27.46V28.748C77.1978 28.8227 76.8898 28.902 76.4978 28.986C76.1058 29.07 75.6205 29.112 75.0418 29.112C73.8285 29.112 72.8952 28.776 72.2418 28.104C71.5978 27.432 71.2758 26.4987 71.2758 25.304C71.2758 24.7627 71.3598 24.2727 71.5278 23.834C71.7052 23.3953 71.9432 23.022 72.2418 22.714C72.5498 22.406 72.9092 22.168 73.3198 22C73.7305 21.832 74.1738 21.748 74.6498 21.748C75.6672 21.748 76.4652 22.0467 77.0438 22.644C77.6225 23.2413 77.9118 24.1467 77.9118 25.36V25.724H72.6338ZM74.6358 22.812C74.0852 22.812 73.6325 22.9893 73.2778 23.344C72.9325 23.6893 72.7178 24.156 72.6338 24.744H76.5118C76.5118 24.128 76.3345 23.652 75.9798 23.316C75.6252 22.98 75.1772 22.812 74.6358 22.812ZM79.7206 27.936C79.8886 27.656 80.0239 27.3667 80.1266 27.068C80.2386 26.76 80.3272 26.4193 80.3926 26.046C80.4579 25.6727 80.4999 25.2433 80.5186 24.758C80.5466 24.2727 80.5699 23.708 80.5886 23.064L80.6166 21.86H85.6846V27.936H86.7206V31.016H85.4606V29H80.0986V31.016H78.8386V27.936H79.7206ZM81.7506 23.484C81.7319 23.9973 81.7086 24.464 81.6806 24.884C81.6619 25.304 81.6246 25.6913 81.5686 26.046C81.5126 26.4007 81.4286 26.732 81.3166 27.04C81.2046 27.348 81.0599 27.6467 80.8826 27.936H84.3686V22.924H81.7646L81.7506 23.484ZM88.876 25.724C88.9507 26.4613 89.2027 27.0307 89.632 27.432C90.0614 27.824 90.64 28.02 91.368 28.02C91.7974 28.02 92.2174 27.9687 92.628 27.866C93.048 27.754 93.3934 27.6187 93.664 27.46V28.748C93.44 28.8227 93.132 28.902 92.74 28.986C92.348 29.07 91.8627 29.112 91.284 29.112C90.0707 29.112 89.1374 28.776 88.484 28.104C87.84 27.432 87.518 26.4987 87.518 25.304C87.518 24.7627 87.602 24.2727 87.77 23.834C87.9474 23.3953 88.1854 23.022 88.484 22.714C88.792 22.406 89.1514 22.168 89.562 22C89.9727 21.832 90.416 21.748 90.892 21.748C91.9094 21.748 92.7074 22.0467 93.286 22.644C93.8647 23.2413 94.154 24.1467 94.154 25.36V25.724H88.876ZM90.878 22.812C90.3274 22.812 89.8747 22.9893 89.52 23.344C89.1747 23.6893 88.96 24.156 88.876 24.744H92.754C92.754 24.128 92.5767 23.652 92.222 23.316C91.8674 22.98 91.4194 22.812 90.878 22.812ZM95.7388 29.112C95.5708 29.112 95.4168 29.098 95.2768 29.07C95.1461 29.042 95.0808 29.0233 95.0808 29.014V27.824C95.1181 27.8427 95.1601 27.8567 95.2068 27.866C95.3001 27.8847 95.3934 27.894 95.4868 27.894C95.7201 27.894 95.9114 27.796 96.0608 27.6C96.2194 27.404 96.3454 27.0913 96.4388 26.662C96.5414 26.2233 96.6114 25.6587 96.6488 24.968C96.6954 24.268 96.7188 23.4187 96.7188 22.42V21.86H101.983V29H100.667V22.924H97.9088V23.12C97.9088 24.2027 97.8621 25.1267 97.7688 25.892C97.6848 26.648 97.5541 27.264 97.3768 27.74C97.1994 28.216 96.9754 28.566 96.7048 28.79C96.4341 29.0047 96.1121 29.112 95.7388 29.112ZM104.305 21.86H105.621V27.46H105.649L108.925 21.86H110.591V29H109.275V23.4H109.247L105.971 29H104.305V21.86ZM114.458 22.924H111.966V21.86H118.266V22.924H115.774V29H114.458V22.924ZM119.644 21.86H120.96V24.324H122.654C123.672 24.324 124.414 24.5387 124.88 24.968C125.356 25.388 125.594 25.9527 125.594 26.662C125.594 27.3713 125.356 27.9407 124.88 28.37C124.414 28.79 123.672 29 122.654 29H119.644V21.86ZM120.96 25.388V27.936H122.654C123.214 27.936 123.62 27.824 123.872 27.6C124.124 27.3667 124.25 27.054 124.25 26.662C124.25 26.27 124.124 25.962 123.872 25.738C123.62 25.5047 123.214 25.388 122.654 25.388H120.96ZM131.177 25.724C131.251 26.4613 131.503 27.0307 131.933 27.432C132.362 27.824 132.941 28.02 133.669 28.02C134.098 28.02 134.518 27.9687 134.929 27.866C135.349 27.754 135.694 27.6187 135.965 27.46V28.748C135.741 28.8227 135.433 28.902 135.041 28.986C134.649 29.07 134.163 29.112 133.585 29.112C132.371 29.112 131.438 28.776 130.785 28.104C130.141 27.432 129.819 26.4987 129.819 25.304C129.819 24.7627 129.903 24.2727 130.071 23.834C130.248 23.3953 130.486 23.022 130.785 22.714C131.093 22.406 131.452 22.168 131.863 22C132.273 21.832 132.717 21.748 133.193 21.748C134.21 21.748 135.008 22.0467 135.587 22.644C136.165 23.2413 136.455 24.1467 136.455 25.36V25.724H131.177ZM133.179 22.812C132.628 22.812 132.175 22.9893 131.821 23.344C131.475 23.6893 131.261 24.156 131.177 24.744H135.055C135.055 24.128 134.877 23.652 134.523 23.316C134.168 22.98 133.72 22.812 133.179 22.812ZM138.348 21.86H142.884V22.924H139.664V29H138.348V21.86ZM147.404 29.112C146.863 29.112 146.368 29.0233 145.92 28.846C145.472 28.6687 145.085 28.4167 144.758 28.09C144.441 27.7633 144.194 27.376 144.016 26.928C143.839 26.48 143.75 25.9807 143.75 25.43C143.75 24.8887 143.839 24.394 144.016 23.946C144.194 23.4887 144.441 23.0967 144.758 22.77C145.085 22.4433 145.472 22.1913 145.92 22.014C146.368 21.8367 146.863 21.748 147.404 21.748C147.946 21.748 148.44 21.8367 148.888 22.014C149.336 22.1913 149.719 22.4433 150.036 22.77C150.363 23.0967 150.615 23.4887 150.792 23.946C150.97 24.394 151.058 24.8887 151.058 25.43C151.058 25.9807 150.97 26.48 150.792 26.928C150.615 27.376 150.363 27.7633 150.036 28.09C149.719 28.4167 149.336 28.6687 148.888 28.846C148.44 29.0233 147.946 29.112 147.404 29.112ZM147.404 28.048C147.712 28.048 148.002 27.9873 148.272 27.866C148.552 27.7447 148.79 27.572 148.986 27.348C149.192 27.1147 149.355 26.8393 149.476 26.522C149.598 26.1953 149.658 25.8313 149.658 25.43C149.658 25.0287 149.598 24.6693 149.476 24.352C149.355 24.0253 149.192 23.75 148.986 23.526C148.781 23.2927 148.543 23.1153 148.272 22.994C148.002 22.8727 147.712 22.812 147.404 22.812C147.096 22.812 146.802 22.8727 146.522 22.994C146.252 23.1153 146.014 23.2927 145.808 23.526C145.612 23.75 145.454 24.0253 145.332 24.352C145.211 24.6693 145.15 25.0287 145.15 25.43C145.15 25.8313 145.211 26.1953 145.332 26.522C145.454 26.8393 145.612 27.1147 145.808 27.348C146.014 27.572 146.252 27.7447 146.522 27.866C146.802 27.9873 147.096 28.048 147.404 28.048ZM157.969 29.112C157.222 29.112 156.629 28.9253 156.191 28.552C155.752 28.1693 155.533 27.642 155.533 26.97C155.533 26.186 155.831 25.5887 156.429 25.178C157.035 24.758 157.964 24.548 159.215 24.548H160.531V24.31C160.531 23.7967 160.353 23.4233 159.999 23.19C159.644 22.9567 159.173 22.84 158.585 22.84C158.202 22.84 157.815 22.8867 157.423 22.98C157.031 23.064 156.62 23.2227 156.191 23.456V22.224C156.545 22.0653 156.951 21.9487 157.409 21.874C157.866 21.79 158.314 21.748 158.753 21.748C159.733 21.748 160.493 21.972 161.035 22.42C161.576 22.8587 161.847 23.5727 161.847 24.562V29H160.503V27.908H160.475C160.176 28.3467 159.793 28.6593 159.327 28.846C158.869 29.0233 158.417 29.112 157.969 29.112ZM158.291 27.992C158.617 27.992 158.916 27.9407 159.187 27.838C159.467 27.7353 159.705 27.5953 159.901 27.418C160.097 27.2313 160.251 27.0167 160.363 26.774C160.475 26.5313 160.531 26.2747 160.531 26.004V25.556H159.271C158.832 25.556 158.463 25.5887 158.165 25.654C157.875 25.7193 157.637 25.8127 157.451 25.934C157.264 26.0553 157.129 26.1953 157.045 26.354C156.97 26.5127 156.933 26.69 156.933 26.886C156.933 27.2407 157.054 27.516 157.297 27.712C157.539 27.8987 157.871 27.992 158.291 27.992ZM169.625 23.736C169.625 24.1093 169.532 24.4173 169.345 24.66C169.168 24.8933 168.902 25.0847 168.547 25.234V25.262C169.453 25.5607 169.905 26.1113 169.905 26.914C169.905 27.2127 169.845 27.488 169.723 27.74C169.611 27.992 169.439 28.2113 169.205 28.398C168.981 28.5847 168.692 28.734 168.337 28.846C167.992 28.9487 167.581 29 167.105 29H163.941V21.86H166.825C167.329 21.86 167.759 21.9113 168.113 22.014C168.468 22.1073 168.757 22.238 168.981 22.406C169.205 22.574 169.369 22.7747 169.471 23.008C169.574 23.232 169.625 23.4747 169.625 23.736ZM167.105 27.936C167.581 27.936 167.927 27.8427 168.141 27.656C168.365 27.4693 168.477 27.2127 168.477 26.886C168.477 26.5593 168.365 26.3027 168.141 26.116C167.927 25.92 167.581 25.822 167.105 25.822H165.257V27.936H167.105ZM166.825 24.758C167.301 24.758 167.647 24.6693 167.861 24.492C168.085 24.3053 168.197 24.086 168.197 23.834C168.197 23.582 168.085 23.3673 167.861 23.19C167.647 23.0127 167.301 22.924 166.825 22.924H165.257V24.758H166.825ZM173.138 22.924H170.646V21.86H176.946V22.924H174.454V29H173.138V22.924ZM181.297 29.112C180.756 29.112 180.261 29.0233 179.813 28.846C179.365 28.6687 178.978 28.4167 178.651 28.09C178.334 27.7633 178.086 27.376 177.909 26.928C177.732 26.48 177.643 25.9807 177.643 25.43C177.643 24.8887 177.732 24.394 177.909 23.946C178.086 23.4887 178.334 23.0967 178.651 22.77C178.978 22.4433 179.365 22.1913 179.813 22.014C180.261 21.8367 180.756 21.748 181.297 21.748C181.838 21.748 182.333 21.8367 182.781 22.014C183.229 22.1913 183.612 22.4433 183.929 22.77C184.256 23.0967 184.508 23.4887 184.685 23.946C184.862 24.394 184.951 24.8887 184.951 25.43C184.951 25.9807 184.862 26.48 184.685 26.928C184.508 27.376 184.256 27.7633 183.929 28.09C183.612 28.4167 183.229 28.6687 182.781 28.846C182.333 29.0233 181.838 29.112 181.297 29.112ZM181.297 28.048C181.605 28.048 181.894 27.9873 182.165 27.866C182.445 27.7447 182.683 27.572 182.879 27.348C183.084 27.1147 183.248 26.8393 183.369 26.522C183.49 26.1953 183.551 25.8313 183.551 25.43C183.551 25.0287 183.49 24.6693 183.369 24.352C183.248 24.0253 183.084 23.75 182.879 23.526C182.674 23.2927 182.436 23.1153 182.165 22.994C181.894 22.8727 181.605 22.812 181.297 22.812C180.989 22.812 180.695 22.8727 180.415 22.994C180.144 23.1153 179.906 23.2927 179.701 23.526C179.505 23.75 179.346 24.0253 179.225 24.352C179.104 24.6693 179.043 25.0287 179.043 25.43C179.043 25.8313 179.104 26.1953 179.225 26.522C179.346 26.8393 179.505 27.1147 179.701 27.348C179.906 27.572 180.144 27.7447 180.415 27.866C180.695 27.9873 180.989 28.048 181.297 28.048ZM186.801 21.86H188.831L190.777 25.934L192.723 21.86H194.697V29H193.381V23.12H193.353L191.407 27.18H190.091L188.145 23.12H188.117V29H186.801V21.86ZM198.861 29.112C198.115 29.112 197.522 28.9253 197.083 28.552C196.645 28.1693 196.425 27.642 196.425 26.97C196.425 26.186 196.724 25.5887 197.321 25.178C197.928 24.758 198.857 24.548 200.107 24.548H201.423V24.31C201.423 23.7967 201.246 23.4233 200.891 23.19C200.537 22.9567 200.065 22.84 199.477 22.84C199.095 22.84 198.707 22.8867 198.315 22.98C197.923 23.064 197.513 23.2227 197.083 23.456V22.224C197.438 22.0653 197.844 21.9487 198.301 21.874C198.759 21.79 199.207 21.748 199.645 21.748C200.625 21.748 201.386 21.972 201.927 22.42C202.469 22.8587 202.739 23.5727 202.739 24.562V29H201.395V27.908H201.367C201.069 28.3467 200.686 28.6593 200.219 28.846C199.762 29.0233 199.309 29.112 198.861 29.112ZM199.183 27.992C199.51 27.992 199.809 27.9407 200.079 27.838C200.359 27.7353 200.597 27.5953 200.793 27.418C200.989 27.2313 201.143 27.0167 201.255 26.774C201.367 26.5313 201.423 26.2747 201.423 26.004V25.556H200.163C199.725 25.556 199.356 25.5887 199.057 25.654C198.768 25.7193 198.53 25.8127 198.343 25.934C198.157 26.0553 198.021 26.1953 197.937 26.354C197.863 26.5127 197.825 26.69 197.825 26.886C197.825 27.2407 197.947 27.516 198.189 27.712C198.432 27.8987 198.763 27.992 199.183 27.992ZM206.374 22.924H203.882V21.86H210.182V22.924H207.69V29H206.374V22.924ZM211.56 21.86H212.876V27.46H212.904L216.18 21.86H217.846V29H216.53V23.4H216.502L213.226 29H211.56V21.86ZM224.444 26.242C224.229 26.2887 223.949 26.3353 223.604 26.382C223.258 26.4193 222.899 26.438 222.526 26.438C221.695 26.438 221.032 26.27 220.538 25.934C220.052 25.598 219.81 25.0707 219.81 24.352V21.86H221.126V23.96C221.126 24.2307 221.149 24.4593 221.196 24.646C221.252 24.8233 221.345 24.968 221.476 25.08C221.606 25.1827 221.779 25.2573 221.994 25.304C222.218 25.3507 222.498 25.374 222.834 25.374C223.403 25.374 223.94 25.332 224.444 25.248V21.86H225.76V29H224.444V26.242ZM228.972 25.724C229.046 26.4613 229.298 27.0307 229.728 27.432C230.157 27.824 230.736 28.02 231.464 28.02C231.893 28.02 232.313 27.9687 232.724 27.866C233.144 27.754 233.489 27.6187 233.76 27.46V28.748C233.536 28.8227 233.228 28.902 232.836 28.986C232.444 29.07 231.958 29.112 231.38 29.112C230.166 29.112 229.233 28.776 228.58 28.104C227.936 27.432 227.614 26.4987 227.614 25.304C227.614 24.7627 227.698 24.2727 227.866 23.834C228.043 23.3953 228.281 23.022 228.58 22.714C228.888 22.406 229.247 22.168 229.658 22C230.068 21.832 230.512 21.748 230.988 21.748C232.005 21.748 232.803 22.0467 233.382 22.644C233.96 23.2413 234.25 24.1467 234.25 25.36V25.724H228.972ZM230.974 22.812C230.423 22.812 229.97 22.9893 229.616 23.344C229.27 23.6893 229.056 24.156 228.972 24.744H232.85C232.85 24.128 232.672 23.652 232.318 23.316C231.963 22.98 231.515 22.812 230.974 22.812ZM239.236 29.112C238.686 29.112 238.186 29.0233 237.738 28.846C237.3 28.6687 236.926 28.4213 236.618 28.104C236.31 27.7773 236.072 27.39 235.904 26.942C235.746 26.4847 235.666 25.9807 235.666 25.43C235.666 24.8793 235.75 24.38 235.918 23.932C236.086 23.4747 236.324 23.0873 236.632 22.77C236.95 22.4433 237.328 22.1913 237.766 22.014C238.205 21.8367 238.7 21.748 239.25 21.748C239.53 21.748 239.778 21.762 239.992 21.79C240.216 21.818 240.408 21.8507 240.566 21.888C240.744 21.9253 240.898 21.972 241.028 22.028V23.162C240.888 23.0967 240.734 23.0407 240.566 22.994C240.417 22.9473 240.244 22.9053 240.048 22.868C239.852 22.8307 239.633 22.812 239.39 22.812C238.644 22.812 238.07 23.0407 237.668 23.498C237.267 23.946 237.066 24.59 237.066 25.43C237.066 26.27 237.267 26.9187 237.668 27.376C238.07 27.824 238.639 28.048 239.376 28.048C239.619 28.048 239.838 28.0293 240.034 27.992C240.24 27.9547 240.417 27.9127 240.566 27.866C240.734 27.8193 240.888 27.7587 241.028 27.684V28.832C240.888 28.888 240.73 28.9347 240.552 28.972C240.394 29.0093 240.202 29.042 239.978 29.07C239.754 29.098 239.507 29.112 239.236 29.112ZM242.937 21.86H244.253V24.744H245.583L247.655 21.86H249.195L246.759 25.248L249.531 29H247.893L245.569 25.808H244.253V29H242.937V21.86ZM250.853 21.86H252.169V27.46H252.197L255.473 21.86H257.139V29H255.823V23.4H255.795L252.519 29H250.853V21.86Z" fill="#002882" fill-opacity="0.6"/>
<g clip-path="url(#clip0_259_454)">
<path d="M28 116C27.4696 116 26.9609 116.211 26.5858 116.586C26.2107 116.961 26 117.47 26 118V130C26 130.53 26.2107 131.039 26.5858 131.414C26.9609 131.789 27.4696 132 28 132H40C40.5304 132 41.0391 131.789 41.4142 131.414C41.7893 131.039 42 130.53 42 130V118C42 117.47 41.7893 116.961 41.4142 116.586C41.0391 116.211 40.5304 116 40 116H28ZM38.03 120.97C38.1689 121.109 38.2479 121.296 38.2499 121.493C38.252 121.689 38.177 121.878 38.041 122.02L34.049 127.01C33.9804 127.084 33.8976 127.143 33.8055 127.184C33.7135 127.226 33.6141 127.248 33.5133 127.25C33.4124 127.251 33.3123 127.233 33.2188 127.195C33.1252 127.158 33.0403 127.101 32.969 127.03L30.324 124.384C30.2503 124.315 30.1912 124.233 30.1502 124.141C30.1092 124.049 30.0872 123.949 30.0854 123.849C30.0836 123.748 30.1022 123.648 30.1399 123.554C30.1776 123.461 30.2337 123.376 30.305 123.305C30.3762 123.234 30.461 123.178 30.5544 123.14C30.6478 123.102 30.7478 123.084 30.8485 123.085C30.9492 123.087 31.0485 123.109 31.1405 123.15C31.2325 123.191 31.3153 123.25 31.384 123.324L33.478 125.417L36.951 120.992C37.0195 120.918 37.1022 120.859 37.1942 120.817C37.2861 120.776 37.3855 120.753 37.4863 120.751C37.5871 120.749 37.6873 120.768 37.7809 120.805C37.8745 120.843 37.9596 120.899 38.031 120.97H38.03Z" fill="#2C92FE"/>
</g>
<path d="M55.25 129.14C54.5313 129.14 53.8873 129.014 53.318 128.762C52.758 128.51 52.282 128.16 51.89 127.712C51.498 127.264 51.1993 126.732 50.994 126.116C50.7887 125.5 50.686 124.828 50.686 124.1C50.686 123.363 50.7887 122.686 50.994 122.07C51.2087 121.454 51.512 120.922 51.904 120.474C52.296 120.026 52.772 119.681 53.332 119.438C53.9013 119.186 54.5407 119.06 55.25 119.06C55.9687 119.06 56.608 119.186 57.168 119.438C57.7373 119.69 58.218 120.04 58.61 120.488C59.002 120.936 59.3007 121.468 59.506 122.084C59.7113 122.7 59.814 123.372 59.814 124.1C59.814 124.837 59.7067 125.514 59.492 126.13C59.2867 126.746 58.988 127.278 58.596 127.726C58.204 128.174 57.7233 128.524 57.154 128.776C56.594 129.019 55.9593 129.14 55.25 129.14ZM55.25 127.908C55.754 127.908 56.1973 127.81 56.58 127.614C56.972 127.409 57.2987 127.133 57.56 126.788C57.8213 126.433 58.0173 126.027 58.148 125.57C58.288 125.113 58.358 124.623 58.358 124.1C58.358 123.568 58.288 123.073 58.148 122.616C58.008 122.149 57.8027 121.743 57.532 121.398C57.2707 121.053 56.9487 120.782 56.566 120.586C56.1833 120.39 55.7447 120.292 55.25 120.292C54.746 120.292 54.3027 120.395 53.92 120.6C53.5373 120.796 53.2107 121.067 52.94 121.412C52.6787 121.757 52.478 122.163 52.338 122.63C52.2073 123.087 52.142 123.577 52.142 124.1C52.142 124.632 52.2073 125.131 52.338 125.598C52.478 126.055 52.6787 126.457 52.94 126.802C53.2107 127.138 53.5373 127.409 53.92 127.614C54.3027 127.81 54.746 127.908 55.25 127.908ZM61.5253 121.86H67.6013V129H66.2853V122.924H62.8413V129H61.5253V121.86ZM71.2358 132.136H69.9198V121.86H71.1798V122.882H71.2078C71.3945 122.63 71.5951 122.429 71.8098 122.28C72.0338 122.131 72.2531 122.019 72.4678 121.944C72.6825 121.86 72.8878 121.809 73.0838 121.79C73.2798 121.762 73.4478 121.748 73.5878 121.748C74.1105 121.748 74.5771 121.841 74.9878 122.028C75.3985 122.205 75.7438 122.457 76.0238 122.784C76.3038 123.111 76.5185 123.498 76.6678 123.946C76.8171 124.385 76.8918 124.861 76.8918 125.374C76.8918 125.878 76.8171 126.359 76.6678 126.816C76.5278 127.264 76.3178 127.661 76.0378 128.006C75.7578 128.342 75.4171 128.613 75.0158 128.818C74.6145 129.014 74.1618 129.112 73.6578 129.112C73.0791 129.112 72.5891 129.005 72.1878 128.79C71.7958 128.566 71.4971 128.323 71.2918 128.062H71.2358V132.136ZM73.3498 128.048C74.0031 128.048 74.5211 127.805 74.9038 127.32C75.2958 126.825 75.4918 126.163 75.4918 125.332C75.4918 124.567 75.3005 123.955 74.9178 123.498C74.5445 123.041 74.0358 122.812 73.3918 122.812C72.7291 122.812 72.2018 123.05 71.8098 123.526C71.4271 124.002 71.2358 124.641 71.2358 125.444C71.2358 126.237 71.4271 126.872 71.8098 127.348C72.1925 127.815 72.7058 128.048 73.3498 128.048ZM79.6202 125.724C79.6948 126.461 79.9468 127.031 80.3762 127.432C80.8055 127.824 81.3842 128.02 82.1122 128.02C82.5415 128.02 82.9615 127.969 83.3722 127.866C83.7922 127.754 84.1375 127.619 84.4082 127.46V128.748C84.1842 128.823 83.8762 128.902 83.4842 128.986C83.0922 129.07 82.6068 129.112 82.0282 129.112C80.8148 129.112 79.8815 128.776 79.2282 128.104C78.5842 127.432 78.2622 126.499 78.2622 125.304C78.2622 124.763 78.3462 124.273 78.5142 123.834C78.6915 123.395 78.9295 123.022 79.2282 122.714C79.5362 122.406 79.8955 122.168 80.3062 122C80.7168 121.832 81.1602 121.748 81.6362 121.748C82.6535 121.748 83.4515 122.047 84.0302 122.644C84.6088 123.241 84.8982 124.147 84.8982 125.36V125.724H79.6202ZM81.6222 122.812C81.0715 122.812 80.6188 122.989 80.2642 123.344C79.9188 123.689 79.7042 124.156 79.6202 124.744H83.4982C83.4982 124.128 83.3208 123.652 82.9662 123.316C82.6115 122.98 82.1635 122.812 81.6222 122.812ZM86.7069 127.936C86.8749 127.656 87.0102 127.367 87.1129 127.068C87.2249 126.76 87.3136 126.419 87.3789 126.046C87.4442 125.673 87.4862 125.243 87.5049 124.758C87.5329 124.273 87.5562 123.708 87.5749 123.064L87.6029 121.86H92.6709V127.936H93.7069V131.016H92.4469V129H87.0849V131.016H85.8249V127.936H86.7069ZM88.7369 123.484C88.7182 123.997 88.6949 124.464 88.6669 124.884C88.6482 125.304 88.6109 125.691 88.5549 126.046C88.4989 126.401 88.4149 126.732 88.3029 127.04C88.1909 127.348 88.0462 127.647 87.8689 127.936H91.3549V122.924H88.7509L88.7369 123.484ZM95.8624 125.724C95.937 126.461 96.189 127.031 96.6184 127.432C97.0477 127.824 97.6264 128.02 98.3544 128.02C98.7837 128.02 99.2037 127.969 99.6144 127.866C100.034 127.754 100.38 127.619 100.65 127.46V128.748C100.426 128.823 100.118 128.902 99.7264 128.986C99.3344 129.07 98.849 129.112 98.2704 129.112C97.057 129.112 96.1237 128.776 95.4704 128.104C94.8264 127.432 94.5044 126.499 94.5044 125.304C94.5044 124.763 94.5884 124.273 94.7564 123.834C94.9337 123.395 95.1717 123.022 95.4704 122.714C95.7784 122.406 96.1377 122.168 96.5484 122C96.959 121.832 97.4024 121.748 97.8784 121.748C98.8957 121.748 99.6937 122.047 100.272 122.644C100.851 123.241 101.14 124.147 101.14 125.36V125.724H95.8624ZM97.8644 122.812C97.3137 122.812 96.861 122.989 96.5064 123.344C96.161 123.689 95.9464 124.156 95.8624 124.744H99.7404C99.7404 124.128 99.563 123.652 99.2084 123.316C98.8537 122.98 98.4057 122.812 97.8644 122.812ZM102.725 129.112C102.557 129.112 102.403 129.098 102.263 129.07C102.132 129.042 102.067 129.023 102.067 129.014V127.824C102.104 127.843 102.146 127.857 102.193 127.866C102.286 127.885 102.38 127.894 102.473 127.894C102.706 127.894 102.898 127.796 103.047 127.6C103.206 127.404 103.332 127.091 103.425 126.662C103.528 126.223 103.598 125.659 103.635 124.968C103.682 124.268 103.705 123.419 103.705 122.42V121.86H108.969V129H107.653V122.924H104.895V123.12C104.895 124.203 104.848 125.127 104.755 125.892C104.671 126.648 104.54 127.264 104.363 127.74C104.186 128.216 103.962 128.566 103.691 128.79C103.42 129.005 103.098 129.112 102.725 129.112ZM111.291 121.86H112.607V127.46H112.635L115.911 121.86H117.577V129H116.261V123.4H116.233L112.957 129H111.291V121.86ZM121.444 122.924H118.952V121.86H125.252V122.924H122.76V129H121.444V122.924ZM126.631 121.86H127.947V124.324H129.641C130.658 124.324 131.4 124.539 131.867 124.968C132.343 125.388 132.581 125.953 132.581 126.662C132.581 127.371 132.343 127.941 131.867 128.37C131.4 128.79 130.658 129 129.641 129H126.631V121.86ZM127.947 125.388V127.936H129.641C130.201 127.936 130.607 127.824 130.859 127.6C131.111 127.367 131.237 127.054 131.237 126.662C131.237 126.27 131.111 125.962 130.859 125.738C130.607 125.505 130.201 125.388 129.641 125.388H127.947ZM139.115 129.112C138.368 129.112 137.776 128.925 137.337 128.552C136.898 128.169 136.679 127.642 136.679 126.97C136.679 126.186 136.978 125.589 137.575 125.178C138.182 124.758 139.11 124.548 140.361 124.548H141.677V124.31C141.677 123.797 141.5 123.423 141.145 123.19C140.79 122.957 140.319 122.84 139.731 122.84C139.348 122.84 138.961 122.887 138.569 122.98C138.177 123.064 137.766 123.223 137.337 123.456V122.224C137.692 122.065 138.098 121.949 138.555 121.874C139.012 121.79 139.46 121.748 139.899 121.748C140.879 121.748 141.64 121.972 142.181 122.42C142.722 122.859 142.993 123.573 142.993 124.562V129H141.649V127.908H141.621C141.322 128.347 140.94 128.659 140.473 128.846C140.016 129.023 139.563 129.112 139.115 129.112ZM139.437 127.992C139.764 127.992 140.062 127.941 140.333 127.838C140.613 127.735 140.851 127.595 141.047 127.418C141.243 127.231 141.397 127.017 141.509 126.774C141.621 126.531 141.677 126.275 141.677 126.004V125.556H140.417C139.978 125.556 139.61 125.589 139.311 125.654C139.022 125.719 138.784 125.813 138.597 125.934C138.41 126.055 138.275 126.195 138.191 126.354C138.116 126.513 138.079 126.69 138.079 126.886C138.079 127.241 138.2 127.516 138.443 127.712C138.686 127.899 139.017 127.992 139.437 127.992ZM150.772 123.736C150.772 124.109 150.678 124.417 150.492 124.66C150.314 124.893 150.048 125.085 149.694 125.234V125.262C150.599 125.561 151.052 126.111 151.052 126.914C151.052 127.213 150.991 127.488 150.87 127.74C150.758 127.992 150.585 128.211 150.352 128.398C150.128 128.585 149.838 128.734 149.484 128.846C149.138 128.949 148.728 129 148.252 129H145.088V121.86H147.972C148.476 121.86 148.905 121.911 149.26 122.014C149.614 122.107 149.904 122.238 150.128 122.406C150.352 122.574 150.515 122.775 150.618 123.008C150.72 123.232 150.772 123.475 150.772 123.736ZM148.252 127.936C148.728 127.936 149.073 127.843 149.288 127.656C149.512 127.469 149.624 127.213 149.624 126.886C149.624 126.559 149.512 126.303 149.288 126.116C149.073 125.92 148.728 125.822 148.252 125.822H146.404V127.936H148.252ZM147.972 124.758C148.448 124.758 148.793 124.669 149.008 124.492C149.232 124.305 149.344 124.086 149.344 123.834C149.344 123.582 149.232 123.367 149.008 123.19C148.793 123.013 148.448 122.924 147.972 122.924H146.404V124.758H147.972ZM154.284 122.924H151.792V121.86H158.092V122.924H155.6V129H154.284V122.924ZM162.444 129.112C161.902 129.112 161.408 129.023 160.96 128.846C160.512 128.669 160.124 128.417 159.798 128.09C159.48 127.763 159.233 127.376 159.056 126.928C158.878 126.48 158.79 125.981 158.79 125.43C158.79 124.889 158.878 124.394 159.056 123.946C159.233 123.489 159.48 123.097 159.798 122.77C160.124 122.443 160.512 122.191 160.96 122.014C161.408 121.837 161.902 121.748 162.444 121.748C162.985 121.748 163.48 121.837 163.928 122.014C164.376 122.191 164.758 122.443 165.076 122.77C165.402 123.097 165.654 123.489 165.832 123.946C166.009 124.394 166.098 124.889 166.098 125.43C166.098 125.981 166.009 126.48 165.832 126.928C165.654 127.376 165.402 127.763 165.076 128.09C164.758 128.417 164.376 128.669 163.928 128.846C163.48 129.023 162.985 129.112 162.444 129.112ZM162.444 128.048C162.752 128.048 163.041 127.987 163.312 127.866C163.592 127.745 163.83 127.572 164.026 127.348C164.231 127.115 164.394 126.839 164.516 126.522C164.637 126.195 164.698 125.831 164.698 125.43C164.698 125.029 164.637 124.669 164.516 124.352C164.394 124.025 164.231 123.75 164.026 123.526C163.82 123.293 163.582 123.115 163.312 122.994C163.041 122.873 162.752 122.812 162.444 122.812C162.136 122.812 161.842 122.873 161.562 122.994C161.291 123.115 161.053 123.293 160.848 123.526C160.652 123.75 160.493 124.025 160.372 124.352C160.25 124.669 160.19 125.029 160.19 125.43C160.19 125.831 160.25 126.195 160.372 126.522C160.493 126.839 160.652 127.115 160.848 127.348C161.053 127.572 161.291 127.745 161.562 127.866C161.842 127.987 162.136 128.048 162.444 128.048ZM167.947 121.86H169.977L171.923 125.934L173.869 121.86H175.843V129H174.527V123.12H174.499L172.553 127.18H171.237L169.291 123.12H169.263V129H167.947V121.86ZM180.008 129.112C179.261 129.112 178.668 128.925 178.23 128.552C177.791 128.169 177.572 127.642 177.572 126.97C177.572 126.186 177.87 125.589 178.468 125.178C179.074 124.758 180.003 124.548 181.254 124.548H182.57V124.31C182.57 123.797 182.392 123.423 182.038 123.19C181.683 122.957 181.212 122.84 180.624 122.84C180.241 122.84 179.854 122.887 179.462 122.98C179.07 123.064 178.659 123.223 178.23 123.456V122.224C178.584 122.065 178.99 121.949 179.448 121.874C179.905 121.79 180.353 121.748 180.792 121.748C181.772 121.748 182.532 121.972 183.074 122.42C183.615 122.859 183.886 123.573 183.886 124.562V129H182.542V127.908H182.514C182.215 128.347 181.832 128.659 181.366 128.846C180.908 129.023 180.456 129.112 180.008 129.112ZM180.33 127.992C180.656 127.992 180.955 127.941 181.226 127.838C181.506 127.735 181.744 127.595 181.94 127.418C182.136 127.231 182.29 127.017 182.402 126.774C182.514 126.531 182.57 126.275 182.57 126.004V125.556H181.31C180.871 125.556 180.502 125.589 180.204 125.654C179.914 125.719 179.676 125.813 179.49 125.934C179.303 126.055 179.168 126.195 179.084 126.354C179.009 126.513 178.972 126.69 178.972 126.886C178.972 127.241 179.093 127.516 179.336 127.712C179.578 127.899 179.91 127.992 180.33 127.992ZM187.52 122.924H185.028V121.86H191.328V122.924H188.836V129H187.52V122.924ZM192.707 121.86H194.023V127.46H194.051L197.327 121.86H198.993V129H197.677V123.4H197.649L194.373 129H192.707V121.86ZM205.59 126.242C205.376 126.289 205.096 126.335 204.75 126.382C204.405 126.419 204.046 126.438 203.672 126.438C202.842 126.438 202.179 126.27 201.684 125.934C201.199 125.598 200.956 125.071 200.956 124.352V121.86H202.272V123.96C202.272 124.231 202.296 124.459 202.342 124.646C202.398 124.823 202.492 124.968 202.622 125.08C202.753 125.183 202.926 125.257 203.14 125.304C203.364 125.351 203.644 125.374 203.98 125.374C204.55 125.374 205.086 125.332 205.59 125.248V121.86H206.906V129H205.59V126.242ZM210.118 125.724C210.193 126.461 210.445 127.031 210.874 127.432C211.304 127.824 211.882 128.02 212.61 128.02C213.04 128.02 213.46 127.969 213.87 127.866C214.29 127.754 214.636 127.619 214.906 127.46V128.748C214.682 128.823 214.374 128.902 213.982 128.986C213.59 129.07 213.105 129.112 212.526 129.112C211.313 129.112 210.38 128.776 209.726 128.104C209.082 127.432 208.76 126.499 208.76 125.304C208.76 124.763 208.844 124.273 209.012 123.834C209.19 123.395 209.428 123.022 209.726 122.714C210.034 122.406 210.394 122.168 210.804 122C211.215 121.832 211.658 121.748 212.134 121.748C213.152 121.748 213.95 122.047 214.528 122.644C215.107 123.241 215.396 124.147 215.396 125.36V125.724H210.118ZM212.12 122.812C211.57 122.812 211.117 122.989 210.762 123.344C210.417 123.689 210.202 124.156 210.118 124.744H213.996C213.996 124.128 213.819 123.652 213.464 123.316C213.11 122.98 212.662 122.812 212.12 122.812ZM220.383 129.112C219.832 129.112 219.333 129.023 218.885 128.846C218.446 128.669 218.073 128.421 217.765 128.104C217.457 127.777 217.219 127.39 217.051 126.942C216.892 126.485 216.813 125.981 216.813 125.43C216.813 124.879 216.897 124.38 217.065 123.932C217.233 123.475 217.471 123.087 217.779 122.77C218.096 122.443 218.474 122.191 218.913 122.014C219.352 121.837 219.846 121.748 220.397 121.748C220.677 121.748 220.924 121.762 221.139 121.79C221.363 121.818 221.554 121.851 221.713 121.888C221.89 121.925 222.044 121.972 222.175 122.028V123.162C222.035 123.097 221.881 123.041 221.713 122.994C221.564 122.947 221.391 122.905 221.195 122.868C220.999 122.831 220.78 122.812 220.537 122.812C219.79 122.812 219.216 123.041 218.815 123.498C218.414 123.946 218.213 124.59 218.213 125.43C218.213 126.27 218.414 126.919 218.815 127.376C219.216 127.824 219.786 128.048 220.523 128.048C220.766 128.048 220.985 128.029 221.181 127.992C221.386 127.955 221.564 127.913 221.713 127.866C221.881 127.819 222.035 127.759 222.175 127.684V128.832C222.035 128.888 221.876 128.935 221.699 128.972C221.54 129.009 221.349 129.042 221.125 129.07C220.901 129.098 220.654 129.112 220.383 129.112ZM224.084 121.86H225.4V124.744H226.73L228.802 121.86H230.342L227.906 125.248L230.678 129H229.04L226.716 125.808H225.4V129H224.084V121.86ZM232 121.86H233.316V127.46H233.344L236.62 121.86H238.286V129H236.97V123.4H236.942L233.666 129H232V121.86Z" fill="#2C92FE"/>
<path d="M1 78C1 64.1929 12.1929 53 26 53H277C290.807 53 302 64.1929 302 78C302 91.8071 290.807 103 277 103H26C12.1929 103 1 91.8071 1 78Z" stroke="#002882" stroke-opacity="0.4" stroke-width="2"/>
<path d="M29.234 74.432H26.238V73.2H33.602V74.432H30.606V83H29.234V74.432ZM40.4065 77.736C40.4065 78.1093 40.3132 78.4173 40.1265 78.66C39.9492 78.8933 39.6832 79.0847 39.3285 79.234V79.262C40.2339 79.5607 40.6865 80.1113 40.6865 80.914C40.6865 81.2127 40.6259 81.488 40.5045 81.74C40.3925 81.992 40.2199 82.2113 39.9865 82.398C39.7625 82.5847 39.4732 82.734 39.1185 82.846C38.7732 82.9487 38.3625 83 37.8865 83H34.7225V75.86H37.6065C38.1105 75.86 38.5399 75.9113 38.8945 76.014C39.2492 76.1073 39.5385 76.238 39.7625 76.406C39.9865 76.574 40.1499 76.7747 40.2525 77.008C40.3552 77.232 40.4065 77.4747 40.4065 77.736ZM37.8865 81.936C38.3625 81.936 38.7079 81.8427 38.9225 81.656C39.1465 81.4693 39.2585 81.2127 39.2585 80.886C39.2585 80.5593 39.1465 80.3027 38.9225 80.116C38.7079 79.92 38.3625 79.822 37.8865 79.822H36.0385V81.936H37.8865ZM37.6065 78.758C38.0825 78.758 38.4279 78.6693 38.6425 78.492C38.8665 78.3053 38.9785 78.086 38.9785 77.834C38.9785 77.582 38.8665 77.3673 38.6425 77.19C38.4279 77.0127 38.0825 76.924 37.6065 76.924H36.0385V78.758H37.6065ZM43.2608 79.724C43.3355 80.4613 43.5875 81.0307 44.0168 81.432C44.4461 81.824 45.0248 82.02 45.7528 82.02C46.1821 82.02 46.6021 81.9687 47.0128 81.866C47.4328 81.754 47.7781 81.6187 48.0488 81.46V82.748C47.8248 82.8227 47.5168 82.902 47.1248 82.986C46.7328 83.07 46.2475 83.112 45.6688 83.112C44.4555 83.112 43.5221 82.776 42.8688 82.104C42.2248 81.432 41.9028 80.4987 41.9028 79.304C41.9028 78.7627 41.9868 78.2727 42.1548 77.834C42.3321 77.3953 42.5701 77.022 42.8688 76.714C43.1768 76.406 43.5361 76.168 43.9468 76C44.3575 75.832 44.8008 75.748 45.2768 75.748C46.2941 75.748 47.0921 76.0467 47.6708 76.644C48.2495 77.2413 48.5388 78.1467 48.5388 79.36V79.724H43.2608ZM45.2628 76.812C44.7121 76.812 44.2595 76.9893 43.9048 77.344C43.5595 77.6893 43.3448 78.156 43.2608 78.744H47.1388C47.1388 78.128 46.9615 77.652 46.6068 77.316C46.2521 76.98 45.8041 76.812 45.2628 76.812ZM51.7475 86.136H50.4315V75.86H51.6915V76.882H51.7195C51.9062 76.63 52.1069 76.4293 52.3215 76.28C52.5455 76.1307 52.7649 76.0187 52.9795 75.944C53.1942 75.86 53.3995 75.8087 53.5955 75.79C53.7915 75.762 53.9595 75.748 54.0995 75.748C54.6222 75.748 55.0889 75.8413 55.4995 76.028C55.9102 76.2053 56.2555 76.4573 56.5355 76.784C56.8155 77.1107 57.0302 77.498 57.1795 77.946C57.3289 78.3847 57.4035 78.8607 57.4035 79.374C57.4035 79.878 57.3289 80.3587 57.1795 80.816C57.0395 81.264 56.8295 81.6607 56.5495 82.006C56.2695 82.342 55.9289 82.6127 55.5275 82.818C55.1262 83.014 54.6735 83.112 54.1695 83.112C53.5909 83.112 53.1009 83.0047 52.6995 82.79C52.3075 82.566 52.0089 82.3233 51.8035 82.062H51.7475V86.136ZM53.8615 82.048C54.5149 82.048 55.0329 81.8053 55.4155 81.32C55.8075 80.8253 56.0035 80.1627 56.0035 79.332C56.0035 78.5667 55.8122 77.9553 55.4295 77.498C55.0562 77.0407 54.5475 76.812 53.9035 76.812C53.2409 76.812 52.7135 77.05 52.3215 77.526C51.9389 78.002 51.7475 78.6413 51.7475 79.444C51.7475 80.2373 51.9389 80.872 52.3215 81.348C52.7042 81.8147 53.2175 82.048 53.8615 82.048ZM62.3439 83.112C61.7932 83.112 61.2939 83.0233 60.8459 82.846C60.4072 82.6687 60.0339 82.4213 59.7259 82.104C59.4179 81.7773 59.1799 81.39 59.0119 80.942C58.8532 80.4847 58.7739 79.9807 58.7739 79.43C58.7739 78.8793 58.8579 78.38 59.0259 77.932C59.1939 77.4747 59.4319 77.0873 59.7399 76.77C60.0572 76.4433 60.4352 76.1913 60.8739 76.014C61.3126 75.8367 61.8072 75.748 62.3579 75.748C62.6379 75.748 62.8852 75.762 63.0999 75.79C63.3239 75.818 63.5152 75.8507 63.6739 75.888C63.8512 75.9253 64.0052 75.972 64.1359 76.028V77.162C63.9959 77.0967 63.8419 77.0407 63.6739 76.994C63.5246 76.9473 63.3519 76.9053 63.1559 76.868C62.9599 76.8307 62.7406 76.812 62.4979 76.812C61.7512 76.812 61.1772 77.0407 60.7759 77.498C60.3746 77.946 60.1739 78.59 60.1739 79.43C60.1739 80.27 60.3746 80.9187 60.7759 81.376C61.1772 81.824 61.7466 82.048 62.4839 82.048C62.7266 82.048 62.9459 82.0293 63.1419 81.992C63.3472 81.9547 63.5246 81.9127 63.6739 81.866C63.8419 81.8193 63.9959 81.7587 64.1359 81.684V82.832C63.9959 82.888 63.8372 82.9347 63.6599 82.972C63.5012 83.0093 63.3099 83.042 63.0859 83.07C62.8619 83.098 62.6146 83.112 62.3439 83.112ZM66.0448 75.86H67.3608V78.744H68.6908L70.7628 75.86H72.3028L69.8668 79.248L72.6388 83H71.0008L68.6768 79.808H67.3608V83H66.0448V75.86ZM75.7948 83.112C75.0482 83.112 74.4555 82.9253 74.0168 82.552C73.5782 82.1693 73.3588 81.642 73.3588 80.97C73.3588 80.186 73.6575 79.5887 74.2548 79.178C74.8615 78.758 75.7902 78.548 77.0408 78.548H78.3568V78.31C78.3568 77.7967 78.1795 77.4233 77.8248 77.19C77.4702 76.9567 76.9988 76.84 76.4108 76.84C76.0282 76.84 75.6408 76.8867 75.2488 76.98C74.8568 77.064 74.4462 77.2227 74.0168 77.456V76.224C74.3715 76.0653 74.7775 75.9487 75.2348 75.874C75.6922 75.79 76.1402 75.748 76.5788 75.748C77.5588 75.748 78.3195 75.972 78.8608 76.42C79.4022 76.8587 79.6728 77.5727 79.6728 78.562V83H78.3288V81.908H78.3008C78.0022 82.3467 77.6195 82.6593 77.1528 82.846C76.6955 83.0233 76.2428 83.112 75.7948 83.112ZM76.1168 81.992C76.4435 81.992 76.7422 81.9407 77.0128 81.838C77.2928 81.7353 77.5308 81.5953 77.7268 81.418C77.9228 81.2313 78.0768 81.0167 78.1888 80.774C78.3008 80.5313 78.3568 80.2747 78.3568 80.004V79.556H77.0968C76.6582 79.556 76.2895 79.5887 75.9908 79.654C75.7015 79.7193 75.4635 79.8127 75.2768 79.934C75.0902 80.0553 74.9548 80.1953 74.8708 80.354C74.7962 80.5127 74.7588 80.69 74.7588 80.886C74.7588 81.2407 74.8802 81.516 75.1228 81.712C75.3655 81.8987 75.6968 81.992 76.1168 81.992ZM82.6775 80.2C82.3135 80.032 82.0101 79.7753 81.7675 79.43C81.5248 79.0847 81.4035 78.66 81.4035 78.156C81.4035 77.456 81.6228 76.9007 82.0615 76.49C82.5001 76.07 83.1768 75.86 84.0915 75.86H87.2835V83H85.9675V80.452H83.9795L82.5795 83H81.0255L82.6775 80.2ZM85.9675 79.388V76.924H84.0915C83.6341 76.924 83.2935 77.036 83.0695 77.26C82.8548 77.484 82.7475 77.7873 82.7475 78.17C82.7475 78.5433 82.8595 78.842 83.0835 79.066C83.3075 79.2807 83.6435 79.388 84.0915 79.388H85.9675ZM93.36 86.136C93.2667 86.136 93.1827 86.1313 93.108 86.122C93.0333 86.122 92.9727 86.1173 92.926 86.108C92.8607 86.0987 92.8047 86.0847 92.758 86.066V84.988C92.8047 84.9973 92.856 85.0067 92.912 85.016C92.9587 85.0253 93.01 85.03 93.066 85.03C93.1313 85.03 93.2013 85.03 93.276 85.03C93.6773 85.03 93.9713 84.918 94.158 84.694C94.354 84.47 94.5313 84.1387 94.69 83.7L94.816 83.35L91.89 75.86H93.332L95.502 81.712H95.6L97.812 75.86H99.142L96.174 83.28C95.9593 83.8027 95.7633 84.246 95.586 84.61C95.418 84.974 95.2313 85.268 95.026 85.492C94.8207 85.716 94.5873 85.8793 94.326 85.982C94.0647 86.0847 93.7427 86.136 93.36 86.136ZM99.9438 83.112C99.7758 83.112 99.6218 83.098 99.4818 83.07C99.3512 83.042 99.2858 83.0233 99.2858 83.014V81.824C99.3232 81.8427 99.3652 81.8567 99.4118 81.866C99.5052 81.8847 99.5985 81.894 99.6918 81.894C99.9252 81.894 100.117 81.796 100.266 81.6C100.425 81.404 100.551 81.0913 100.644 80.662C100.747 80.2233 100.817 79.6587 100.854 78.968C100.901 78.268 100.924 77.4187 100.924 76.42V75.86H106.188V83H104.872V76.924H102.114V77.12C102.114 78.2027 102.067 79.1267 101.974 79.892C101.89 80.648 101.759 81.264 101.582 81.74C101.405 82.216 101.181 82.566 100.91 82.79C100.639 83.0047 100.317 83.112 99.9438 83.112ZM108.51 75.86H109.826V81.46H109.854L113.13 75.86H114.796V83H113.48V77.4H113.452L110.176 83H108.51V75.86ZM122.849 83H117.123V75.86H118.439V81.936H121.757V75.86H123.073V81.936H124.109V85.016H122.849V83ZM127.351 83.112C126.605 83.112 126.012 82.9253 125.573 82.552C125.135 82.1693 124.915 81.642 124.915 80.97C124.915 80.186 125.214 79.5887 125.811 79.178C126.418 78.758 127.347 78.548 128.597 78.548H129.913V78.31C129.913 77.7967 129.736 77.4233 129.381 77.19C129.027 76.9567 128.555 76.84 127.967 76.84C127.585 76.84 127.197 76.8867 126.805 76.98C126.413 77.064 126.003 77.2227 125.573 77.456V76.224C125.928 76.0653 126.334 75.9487 126.791 75.874C127.249 75.79 127.697 75.748 128.135 75.748C129.115 75.748 129.876 75.972 130.417 76.42C130.959 76.8587 131.229 77.5727 131.229 78.562V83H129.885V81.908H129.857C129.559 82.3467 129.176 82.6593 128.709 82.846C128.252 83.0233 127.799 83.112 127.351 83.112ZM127.673 81.992C128 81.992 128.299 81.9407 128.569 81.838C128.849 81.7353 129.087 81.5953 129.283 81.418C129.479 81.2313 129.633 81.0167 129.745 80.774C129.857 80.5313 129.913 80.2747 129.913 80.004V79.556H128.653C128.215 79.556 127.846 79.5887 127.547 79.654C127.258 79.7193 127.02 79.8127 126.833 79.934C126.647 80.0553 126.511 80.1953 126.427 80.354C126.353 80.5127 126.315 80.69 126.315 80.886C126.315 81.2407 126.437 81.516 126.679 81.712C126.922 81.8987 127.253 81.992 127.673 81.992ZM133.338 81.432H134.892L133.702 84.862H132.456L133.338 81.432ZM143.401 73.06C144.045 73.06 144.586 73.186 145.025 73.438C145.473 73.69 145.832 74.0307 146.103 74.46C146.373 74.8893 146.569 75.3887 146.691 75.958C146.812 76.5273 146.873 77.1247 146.873 77.75C146.873 78.5247 146.798 79.2433 146.649 79.906C146.499 80.5593 146.261 81.1287 145.935 81.614C145.608 82.09 145.188 82.4633 144.675 82.734C144.171 83.0047 143.564 83.14 142.855 83.14C142.556 83.14 142.243 83.1167 141.917 83.07C141.599 83.0327 141.305 82.9673 141.035 82.874V81.586C141.305 81.6887 141.599 81.768 141.917 81.824C142.243 81.88 142.551 81.908 142.841 81.908C143.335 81.908 143.76 81.8147 144.115 81.628C144.479 81.4413 144.773 81.1847 144.997 80.858C145.23 80.522 145.398 80.1253 145.501 79.668C145.613 79.2107 145.664 78.716 145.655 78.184C145.431 78.5107 145.132 78.786 144.759 79.01C144.385 79.234 143.905 79.346 143.317 79.346C142.869 79.346 142.458 79.276 142.085 79.136C141.711 78.996 141.389 78.7953 141.119 78.534C140.857 78.2633 140.652 77.9367 140.503 77.554C140.353 77.1713 140.279 76.742 140.279 76.266C140.279 75.8087 140.344 75.3887 140.475 75.006C140.615 74.614 140.815 74.2733 141.077 73.984C141.338 73.6947 141.665 73.4707 142.057 73.312C142.449 73.144 142.897 73.06 143.401 73.06ZM143.457 74.194C142.85 74.194 142.393 74.3947 142.085 74.796C141.777 75.188 141.623 75.678 141.623 76.266C141.623 76.5367 141.66 76.7887 141.735 77.022C141.809 77.2553 141.921 77.4607 142.071 77.638C142.22 77.8153 142.411 77.9553 142.645 78.058C142.878 78.1513 143.149 78.198 143.457 78.198C143.765 78.198 144.035 78.1513 144.269 78.058C144.511 77.9553 144.717 77.82 144.885 77.652C145.053 77.4747 145.179 77.2693 145.263 77.036C145.347 76.8027 145.389 76.546 145.389 76.266C145.389 75.9767 145.347 75.706 145.263 75.454C145.188 75.202 145.067 74.9827 144.899 74.796C144.74 74.6093 144.539 74.4647 144.297 74.362C144.054 74.25 143.774 74.194 143.457 74.194ZM148.883 81.432H150.437L149.247 84.862H148.001L148.883 81.432ZM156.159 73.2H158.385L160.905 78.59L163.439 73.2H165.595V83H164.223V74.544H164.181L161.437 80.2H160.317L157.573 74.544H157.531V83H156.159V73.2ZM171.106 83.112C170.564 83.112 170.07 83.0233 169.622 82.846C169.174 82.6687 168.786 82.4167 168.46 82.09C168.142 81.7633 167.895 81.376 167.718 80.928C167.54 80.48 167.452 79.9807 167.452 79.43C167.452 78.8887 167.54 78.394 167.718 77.946C167.895 77.4887 168.142 77.0967 168.46 76.77C168.786 76.4433 169.174 76.1913 169.622 76.014C170.07 75.8367 170.564 75.748 171.106 75.748C171.647 75.748 172.142 75.8367 172.59 76.014C173.038 76.1913 173.42 76.4433 173.738 76.77C174.064 77.0967 174.316 77.4887 174.494 77.946C174.671 78.394 174.76 78.8887 174.76 79.43C174.76 79.9807 174.671 80.48 174.494 80.928C174.316 81.376 174.064 81.7633 173.738 82.09C173.42 82.4167 173.038 82.6687 172.59 82.846C172.142 83.0233 171.647 83.112 171.106 83.112ZM171.106 82.048C171.414 82.048 171.703 81.9873 171.974 81.866C172.254 81.7447 172.492 81.572 172.688 81.348C172.893 81.1147 173.056 80.8393 173.178 80.522C173.299 80.1953 173.36 79.8313 173.36 79.43C173.36 79.0287 173.299 78.6693 173.178 78.352C173.056 78.0253 172.893 77.75 172.688 77.526C172.482 77.2927 172.244 77.1153 171.974 76.994C171.703 76.8727 171.414 76.812 171.106 76.812C170.798 76.812 170.504 76.8727 170.224 76.994C169.953 77.1153 169.715 77.2927 169.51 77.526C169.314 77.75 169.155 78.0253 169.034 78.352C168.912 78.6693 168.852 79.0287 168.852 79.43C168.852 79.8313 168.912 80.1953 169.034 80.522C169.155 80.8393 169.314 81.1147 169.51 81.348C169.715 81.572 169.953 81.7447 170.224 81.866C170.504 81.9873 170.798 82.048 171.106 82.048ZM179.703 83.112C179.153 83.112 178.653 83.0233 178.205 82.846C177.767 82.6687 177.393 82.4213 177.085 82.104C176.777 81.7773 176.539 81.39 176.371 80.942C176.213 80.4847 176.133 79.9807 176.133 79.43C176.133 78.8793 176.217 78.38 176.385 77.932C176.553 77.4747 176.791 77.0873 177.099 76.77C177.417 76.4433 177.795 76.1913 178.233 76.014C178.672 75.8367 179.167 75.748 179.717 75.748C179.997 75.748 180.245 75.762 180.459 75.79C180.683 75.818 180.875 75.8507 181.033 75.888C181.211 75.9253 181.365 75.972 181.495 76.028V77.162C181.355 77.0967 181.201 77.0407 181.033 76.994C180.884 76.9473 180.711 76.9053 180.515 76.868C180.319 76.8307 180.1 76.812 179.857 76.812C179.111 76.812 178.537 77.0407 178.135 77.498C177.734 77.946 177.533 78.59 177.533 79.43C177.533 80.27 177.734 80.9187 178.135 81.376C178.537 81.824 179.106 82.048 179.843 82.048C180.086 82.048 180.305 82.0293 180.501 81.992C180.707 81.9547 180.884 81.9127 181.033 81.866C181.201 81.8193 181.355 81.7587 181.495 81.684V82.832C181.355 82.888 181.197 82.9347 181.019 82.972C180.861 83.0093 180.669 83.042 180.445 83.07C180.221 83.098 179.974 83.112 179.703 83.112ZM183.404 75.86H184.72V78.744H186.05L188.122 75.86H189.662L187.226 79.248L189.998 83H188.36L186.036 79.808H184.72V83H183.404V75.86ZM197.004 77.736C197.004 78.1093 196.911 78.4173 196.724 78.66C196.547 78.8933 196.281 79.0847 195.926 79.234V79.262C196.832 79.5607 197.284 80.1113 197.284 80.914C197.284 81.2127 197.224 81.488 197.102 81.74C196.99 81.992 196.818 82.2113 196.584 82.398C196.36 82.5847 196.071 82.734 195.716 82.846C195.371 82.9487 194.96 83 194.484 83H191.32V75.86H194.204C194.708 75.86 195.138 75.9113 195.492 76.014C195.847 76.1073 196.136 76.238 196.36 76.406C196.584 76.574 196.748 76.7747 196.85 77.008C196.953 77.232 197.004 77.4747 197.004 77.736ZM194.484 81.936C194.96 81.936 195.306 81.8427 195.52 81.656C195.744 81.4693 195.856 81.2127 195.856 80.886C195.856 80.5593 195.744 80.3027 195.52 80.116C195.306 79.92 194.96 79.822 194.484 79.822H192.636V81.936H194.484ZM194.204 78.758C194.68 78.758 195.026 78.6693 195.24 78.492C195.464 78.3053 195.576 78.086 195.576 77.834C195.576 77.582 195.464 77.3673 195.24 77.19C195.026 77.0127 194.68 76.924 194.204 76.924H192.636V78.758H194.204ZM200.81 83.112C200.064 83.112 199.471 82.9253 199.032 82.552C198.594 82.1693 198.374 81.642 198.374 80.97C198.374 80.186 198.673 79.5887 199.27 79.178C199.877 78.758 200.806 78.548 202.056 78.548H203.372V78.31C203.372 77.7967 203.195 77.4233 202.84 77.19C202.486 76.9567 202.014 76.84 201.426 76.84C201.044 76.84 200.656 76.8867 200.264 76.98C199.872 77.064 199.462 77.2227 199.032 77.456V76.224C199.387 76.0653 199.793 75.9487 200.25 75.874C200.708 75.79 201.156 75.748 201.594 75.748C202.574 75.748 203.335 75.972 203.876 76.42C204.418 76.8587 204.688 77.5727 204.688 78.562V83H203.344V81.908H203.316C203.018 82.3467 202.635 82.6593 202.168 82.846C201.711 83.0233 201.258 83.112 200.81 83.112ZM201.132 81.992C201.459 81.992 201.758 81.9407 202.028 81.838C202.308 81.7353 202.546 81.5953 202.742 81.418C202.938 81.2313 203.092 81.0167 203.204 80.774C203.316 80.5313 203.372 80.2747 203.372 80.004V79.556H202.112C201.674 79.556 201.305 79.5887 201.006 79.654C200.717 79.7193 200.479 79.8127 200.292 79.934C200.106 80.0553 199.97 80.1953 199.886 80.354C199.812 80.5127 199.774 80.69 199.774 80.886C199.774 81.2407 199.896 81.516 200.138 81.712C200.381 81.8987 200.712 81.992 201.132 81.992Z" fill="#002882" fill-opacity="0.4"/>
<defs>
<clipPath id="clip0_259_454">
<rect width="16" height="16" fill="white" transform="translate(26 116)"/>
</clipPath>
</defs>
</svg>
